<?xml version="1.0" encoding="utf-8"?>
<!-- Generator: Adobe Illustrator 18.0.0, SVG Export Plug-In . SVG Version: 6.00 Build 0)  -->
<!DOCTYPE svg PUBLIC "-//W3C//DTD SVG 1.1//EN" "http://www.w3.org/Graphics/SVG/1.1/DTD/svg11.dtd">
<svg version="1.1" id="Layer_1" xmlns="http://www.w3.org/2000/svg" xmlns:xlink="http://www.w3.org/1999/xlink" x="0px" y="0px"
	 viewBox="0 0 612 792" enable-background="new 0 0 612 792" xml:space="preserve">
<path fill-rule="evenodd" clip-rule="evenodd" fill="#CC6699" d="M305.44,191c113.46,0,205.44,91.98,205.44,205.44
	c0,113.46-91.98,205.44-205.44,205.44C191.98,601.87,100,509.89,100,396.44C100,282.98,191.98,191,305.44,191L305.44,191z"/>
<g>
	<path fill="#FFFFFF" d="M434.3,278.93c-9.3-36.49-69.8-48.48-127.06-28.14c-34.08,12.11-70.96,31.11-97.49,55.92
		c-31.54,29.5-36.57,55.17-34.49,65.9c7.31,37.85,59.18,62.6,80.5,80.95v0.11c-6.29,3.09-52.3,26.38-63.07,50.19
		c-11.36,25.12,1.81,43.14,10.53,45.57c27.02,7.52,54.74-6,69.65-28.23c14.38-21.45,13.18-49.14,6.93-62.92
		c8.62-2.27,18.67-3.29,31.44-1.8c36.04,4.21,43.11,26.71,41.76,36.13c-1.35,9.42-8.91,14.6-11.44,16.16
		c-2.53,1.56-3.3,2.11-3.09,3.27c0.31,1.69,1.48,1.63,3.63,1.26c2.97-0.5,18.92-7.66,19.61-25.04
		c0.87-22.07-20.28-46.76-57.73-46.11c-15.42,0.27-25.12,1.73-32.13,4.34c-0.52-0.59-1.04-1.18-1.59-1.76
		c-23.15-24.7-65.95-42.17-64.14-75.38c0.66-12.07,4.86-43.86,82.24-82.42c63.39-31.59,114.14-22.89,122.91-3.63
		c12.53,27.52-27.12,78.67-92.95,86.05c-25.08,2.81-38.29-6.91-41.57-10.53c-3.46-3.81-3.97-3.98-5.27-3.27
		c-2.1,1.17-0.77,4.53,0,6.54c1.97,5.12,10.03,14.19,23.78,18.7c12.1,3.97,41.54,6.15,77.16-7.62
		C412.3,357.72,443.45,314.8,434.3,278.93z M264.61,464.87c2.99,11.06,2.66,21.37-0.43,30.7c-0.34,1.04-0.72,2.06-1.13,3.08
		c-0.41,1.01-0.85,2.01-1.33,3c-2.38,4.94-5.58,9.56-9.49,13.83c-11.94,13.02-28.61,17.95-35.76,13.8
		c-7.72-4.48-3.85-22.84,9.98-37.46c14.89-15.74,36.31-25.86,36.31-25.86l-0.03-0.06C263.35,465.56,263.97,465.22,264.61,464.87z"/>
</g>
</svg>
