<?xml version="1.0" standalone="no"?>
<!DOCTYPE svg PUBLIC "-//W3C//DTD SVG 20010904//EN"
 "http://www.w3.org/TR/2001/REC-SVG-20010904/DTD/svg10.dtd">
<svg version="1.0" xmlns="http://www.w3.org/2000/svg"
 width="700.000000pt" height="700.000000pt" viewBox="0 0 700.000000 700.000000"
 preserveAspectRatio="xMidYMid meet">
<metadata>
Created by potrace 1.11, written by Peter Selinger 2001-2013
</metadata>
<g transform="translate(0.000000,700.000000) scale(0.100000,-0.100000)"
fill="#000000" stroke="none">
<path d="M1235 6978 c-6 -13 -20 -24 -32 -26 -12 -2 -46 -28 -76 -58 -31 -30
-64 -54 -75 -54 -11 0 -33 -16 -49 -35 -17 -19 -40 -35 -51 -35 -42 0 -62 -37
-62 -113 l0 -69 140 -139 c91 -92 137 -145 134 -154 -5 -12 -35 -15 -174 -15
-134 0 -170 -3 -180 -14 -6 -8 -21 -16 -33 -18 -14 -2 -23 -11 -25 -25 -2 -12
-10 -27 -18 -33 -21 -19 -21 -5381 0 -5400 8 -6 16 -21 18 -33 2 -14 11 -23
25 -25 12 -2 27 -10 33 -18 19 -21 5381 -21 5400 0 6 8 21 16 33 18 14 2 23
11 25 25 2 12 10 27 18 33 21 19 21 5381 0 5400 -8 6 -16 21 -18 33 -2 14 -11
23 -25 25 -12 2 -27 10 -33 18 -10 11 -46 14 -180 14 -139 0 -169 3 -174 15
-3 9 43 62 134 154 l140 139 0 69 c0 76 -20 113 -62 113 -11 0 -34 16 -51 35
-16 19 -38 35 -49 35 -11 0 -44 24 -75 54 -30 30 -64 56 -76 58 -12 2 -26 13
-32 26 -9 20 -16 22 -87 22 -50 0 -78 -4 -78 -11 0 -6 -157 -168 -349 -360
l-349 -349 -1412 0 -1412 0 -349 349 c-192 192 -349 354 -349 360 0 7 -28 11
-78 11 -71 0 -78 -2 -87 -22z m95 -263 c0 -8 7 -15 15 -15 8 0 15 -7 15 -16 0
-9 9 -18 20 -21 11 -3 20 -12 20 -19 0 -8 7 -14 15 -14 8 0 15 -7 15 -16 0 -9
9 -18 20 -21 11 -3 20 -12 20 -19 0 -8 6 -14 14 -14 7 0 16 -9 19 -20 3 -11
12 -20 21 -20 9 0 16 -7 16 -15 0 -8 7 -15 15 -15 8 0 15 -7 15 -16 0 -9 9
-18 20 -21 11 -3 20 -12 20 -19 0 -8 7 -14 15 -14 8 0 15 -7 15 -16 0 -9 9
-18 20 -21 11 -3 20 -12 20 -19 0 -8 4 -14 10 -14 5 0 20 -11 34 -25 l25 -25
-129 0 c-123 0 -130 1 -130 20 0 11 -7 20 -15 20 -8 0 -15 7 -15 15 0 8 -9 15
-20 15 -13 0 -20 7 -20 20 0 11 -7 20 -15 20 -8 0 -15 7 -15 15 0 8 -9 15 -20
15 -13 0 -20 7 -20 20 0 11 -7 20 -15 20 -8 0 -15 7 -15 15 0 8 -9 15 -20 15
-13 0 -20 7 -20 20 0 11 -7 20 -15 20 -8 0 -15 7 -15 15 0 8 -9 15 -20 15 -13
0 -20 7 -20 20 0 11 -7 20 -15 20 -8 0 -15 9 -15 20 0 16 7 20 31 20 22 0 32
5 36 20 3 11 12 20 19 20 8 0 14 7 14 15 0 9 9 15 25 15 16 0 25 -6 25 -15z
m4410 0 c0 -8 6 -15 14 -15 7 0 16 -9 19 -20 4 -15 14 -20 36 -20 24 0 31 -4
31 -20 0 -11 -7 -20 -15 -20 -8 0 -15 -9 -15 -20 0 -13 -7 -20 -20 -20 -11 0
-20 -7 -20 -15 0 -8 -7 -15 -15 -15 -8 0 -15 -9 -15 -20 0 -13 -7 -20 -20 -20
-11 0 -20 -7 -20 -15 0 -8 -7 -15 -15 -15 -8 0 -15 -9 -15 -20 0 -13 -7 -20
-20 -20 -11 0 -20 -7 -20 -15 0 -8 -7 -15 -15 -15 -8 0 -15 -9 -15 -20 0 -13
-7 -20 -20 -20 -11 0 -20 -7 -20 -15 0 -8 -7 -15 -15 -15 -8 0 -15 -9 -15 -20
0 -19 -7 -20 -130 -20 l-129 0 25 25 c14 14 29 25 34 25 6 0 10 7 10 15 0 8 7
15 16 15 9 0 18 9 21 20 3 11 12 20 19 20 8 0 14 7 14 15 0 8 7 15 16 15 9 0
18 9 21 20 3 11 12 20 19 20 8 0 14 7 14 15 0 8 7 15 16 15 9 0 18 9 21 20 3
11 12 20 19 20 8 0 14 7 14 15 0 8 7 15 16 15 9 0 18 9 21 20 3 11 12 20 19
20 8 0 14 7 14 15 0 8 7 15 16 15 9 0 18 9 21 20 3 11 12 20 19 20 8 0 14 7
14 15 0 9 9 15 25 15 16 0 25 -6 25 -15z m380 -3225 l0 -2610 -2610 0 -2610 0
0 2610 0 2610 2610 0 2610 0 0 -2610z"/>
<path d="M1890 5795 c0 -11 -12 -15 -51 -15 -42 0 -52 -3 -56 -20 -4 -15 -14
-20 -39 -20 -24 0 -34 -5 -34 -15 0 -8 -7 -15 -15 -15 -8 0 -15 -9 -15 -20 0
-16 -7 -20 -35 -20 -24 0 -35 -5 -35 -15 0 -8 -7 -15 -16 -15 -9 0 -18 -9 -21
-20 -3 -11 -12 -20 -19 -20 -8 0 -14 -6 -14 -14 0 -7 -9 -16 -20 -19 -15 -4
-20 -14 -20 -36 0 -21 -5 -31 -15 -31 -8 0 -15 -9 -15 -20 0 -13 -7 -20 -20
-20 -16 0 -20 -7 -20 -35 0 -24 -5 -35 -15 -35 -11 0 -15 -12 -15 -49 0 -40
-3 -50 -20 -54 -19 -5 -20 -14 -20 -241 0 -229 1 -236 20 -236 18 0 20 -7 20
-55 0 -42 3 -55 15 -55 10 0 15 -10 15 -31 0 -22 5 -32 20 -36 11 -3 20 -12
20 -19 0 -8 7 -14 15 -14 10 0 15 -11 15 -35 0 -28 4 -35 20 -35 13 0 20 -7
20 -20 0 -11 7 -20 15 -20 8 0 15 -7 15 -15 0 -8 9 -15 20 -15 13 0 20 -7 20
-20 0 -16 7 -20 35 -20 24 0 35 -5 35 -15 0 -8 6 -15 14 -15 7 0 16 -9 19 -20
4 -15 14 -20 36 -20 21 0 31 -5 31 -15 0 -12 13 -15 55 -15 48 0 55 -2 55 -20
0 -19 7 -20 236 -20 227 0 236 1 241 20 4 17 14 20 54 20 37 0 49 4 49 15 0
10 11 15 35 15 28 0 35 4 35 20 0 13 7 20 20 20 11 0 20 7 20 15 0 10 10 15
31 15 22 0 32 5 36 20 3 11 12 20 19 20 8 0 14 7 14 15 0 8 7 15 16 15 9 0 18
9 21 20 3 11 12 20 19 20 9 0 14 12 14 35 0 28 4 35 20 35 11 0 20 7 20 15 0
8 7 15 15 15 10 0 15 10 15 34 0 25 5 35 20 39 17 4 20 14 20 56 0 39 4 51 15
51 13 0 15 33 15 240 0 207 -2 240 -15 240 -11 0 -15 12 -15 50 0 43 -3 50
-20 50 -16 0 -20 7 -20 35 0 24 -5 35 -15 35 -8 0 -15 7 -15 16 0 9 -9 18 -20
21 -15 4 -20 14 -20 39 0 24 -5 34 -15 34 -8 0 -15 7 -15 15 0 8 -9 15 -20 15
-13 0 -20 7 -20 20 0 11 -7 20 -15 20 -8 0 -15 7 -15 15 0 10 -11 15 -35 15
-25 0 -35 4 -35 16 0 9 -9 18 -20 21 -11 3 -20 12 -20 19 0 9 -12 14 -35 14
-28 0 -35 4 -35 20 0 17 -7 20 -50 20 -38 0 -50 4 -50 15 0 13 -33 15 -240 15
-207 0 -240 -2 -240 -15z m430 -75 c10 -14 26 -20 51 -20 20 0 42 -7 49 -15 7
-8 21 -15 32 -15 11 0 36 -16 55 -35 19 -19 43 -35 54 -35 24 0 119 -95 119
-119 0 -11 16 -35 35 -54 19 -19 35 -44 35 -55 0 -11 7 -25 15 -32 8 -7 15
-29 15 -49 0 -25 6 -41 20 -51 19 -13 20 -26 20 -188 0 -159 -2 -175 -20 -194
-12 -13 -20 -36 -20 -56 0 -18 -7 -40 -15 -48 -8 -9 -15 -25 -15 -36 0 -11
-16 -34 -35 -51 -19 -16 -35 -38 -35 -49 0 -24 -91 -118 -114 -118 -9 0 -33
-16 -53 -35 -20 -19 -44 -35 -53 -35 -9 0 -26 -9 -38 -20 -13 -12 -35 -20 -56
-20 -19 0 -41 -7 -50 -15 -12 -12 -47 -15 -189 -15 -143 0 -177 3 -187 15 -7
9 -29 15 -54 15 -30 0 -46 6 -56 20 -8 11 -23 20 -33 20 -10 0 -34 16 -54 35
-20 19 -44 35 -53 35 -23 0 -110 87 -110 110 0 9 -16 33 -35 53 -19 20 -35 44
-35 54 0 10 -9 25 -20 33 -14 10 -20 26 -20 56 0 25 -6 47 -15 54 -12 10 -15
44 -15 187 0 142 3 177 15 189 8 9 15 31 15 50 0 21 8 43 20 56 11 12 20 29
20 38 0 9 16 33 35 53 19 20 35 44 35 53 0 23 94 114 118 114 11 0 33 16 49
35 17 19 40 35 51 35 11 0 27 7 36 15 8 8 30 15 49 15 20 0 41 8 53 19 17 18
35 20 194 20 164 1 176 0 190 -19z"/>
<path d="M2460 4970 c-8 -11 -24 -20 -37 -20 -26 0 -63 -36 -63 -61 0 -9 -7
-22 -15 -29 -9 -8 -15 -29 -15 -56 0 -24 6 -49 15 -58 8 -8 15 -22 15 -31 0
-21 44 -65 65 -65 9 0 23 -7 31 -15 9 -9 34 -15 58 -15 27 0 48 6 56 15 7 8
20 15 29 15 25 0 61 37 61 63 0 13 9 29 20 37 14 10 20 26 20 50 0 22 -8 44
-20 58 -11 12 -20 30 -20 40 0 23 -30 52 -54 52 -9 0 -26 9 -38 20 -14 12 -36
20 -58 20 -24 0 -40 -6 -50 -20z"/>
<path d="M5040 5795 c0 -11 -12 -15 -51 -15 -42 0 -52 -3 -56 -20 -4 -15 -14
-20 -39 -20 -24 0 -34 -5 -34 -15 0 -8 -7 -15 -15 -15 -8 0 -15 -9 -15 -20 0
-16 -7 -20 -35 -20 -24 0 -35 -5 -35 -15 0 -8 -7 -15 -16 -15 -9 0 -18 -9 -21
-20 -3 -11 -12 -20 -19 -20 -8 0 -14 -6 -14 -14 0 -7 -9 -16 -20 -19 -15 -4
-20 -14 -20 -36 0 -21 -5 -31 -15 -31 -8 0 -15 -9 -15 -20 0 -13 -7 -20 -20
-20 -16 0 -20 -7 -20 -35 0 -24 -5 -35 -15 -35 -11 0 -15 -12 -15 -49 0 -40
-3 -50 -20 -54 -19 -5 -20 -14 -20 -241 0 -229 1 -236 20 -236 18 0 20 -7 20
-55 0 -42 3 -55 15 -55 10 0 15 -10 15 -31 0 -22 5 -32 20 -36 11 -3 20 -12
20 -19 0 -8 7 -14 15 -14 10 0 15 -11 15 -35 0 -28 4 -35 20 -35 13 0 20 -7
20 -20 0 -11 7 -20 15 -20 8 0 15 -7 15 -15 0 -8 9 -15 20 -15 13 0 20 -7 20
-20 0 -16 7 -20 35 -20 24 0 35 -5 35 -15 0 -8 6 -15 14 -15 7 0 16 -9 19 -20
4 -15 14 -20 36 -20 21 0 31 -5 31 -15 0 -12 13 -15 55 -15 48 0 55 -2 55 -20
0 -19 7 -20 236 -20 227 0 236 1 241 20 4 17 14 20 54 20 37 0 49 4 49 15 0
10 11 15 35 15 28 0 35 4 35 20 0 13 7 20 20 20 11 0 20 7 20 15 0 10 10 15
31 15 22 0 32 5 36 20 3 11 12 20 19 20 8 0 14 7 14 15 0 8 7 15 16 15 9 0 18
9 21 20 3 11 12 20 19 20 9 0 14 12 14 35 0 28 4 35 20 35 11 0 20 7 20 15 0
8 7 15 15 15 10 0 15 10 15 34 0 25 5 35 20 39 17 4 20 14 20 56 0 39 4 51 15
51 13 0 15 33 15 240 0 207 -2 240 -15 240 -11 0 -15 12 -15 50 0 43 -3 50
-20 50 -16 0 -20 7 -20 35 0 24 -5 35 -15 35 -8 0 -15 7 -15 16 0 9 -9 18 -20
21 -15 4 -20 14 -20 39 0 24 -5 34 -15 34 -8 0 -15 7 -15 15 0 8 -9 15 -20 15
-13 0 -20 7 -20 20 0 11 -7 20 -15 20 -8 0 -15 7 -15 15 0 10 -11 15 -35 15
-25 0 -35 4 -35 16 0 9 -9 18 -20 21 -11 3 -20 12 -20 19 0 9 -12 14 -35 14
-28 0 -35 4 -35 20 0 17 -7 20 -50 20 -38 0 -50 4 -50 15 0 13 -33 15 -240 15
-207 0 -240 -2 -240 -15z m430 -75 c10 -14 26 -20 51 -20 20 0 42 -7 49 -15 7
-8 21 -15 32 -15 11 0 36 -16 55 -35 19 -19 43 -35 54 -35 10 0 41 -23 69 -50
27 -28 50 -59 50 -69 0 -11 16 -35 35 -54 19 -19 35 -44 35 -55 0 -11 7 -25
15 -32 8 -7 15 -29 15 -49 0 -25 6 -41 20 -51 19 -13 20 -26 20 -188 0 -159
-2 -175 -20 -194 -12 -13 -20 -36 -20 -56 0 -18 -7 -40 -15 -48 -8 -9 -15 -25
-15 -36 0 -11 -16 -34 -35 -51 -19 -16 -35 -38 -35 -49 0 -24 -91 -118 -114
-118 -9 0 -33 -16 -53 -35 -20 -19 -44 -35 -53 -35 -9 0 -26 -9 -38 -20 -13
-12 -35 -20 -56 -20 -19 0 -41 -7 -50 -15 -12 -12 -47 -15 -189 -15 -143 0
-177 3 -187 15 -7 9 -29 15 -54 15 -30 0 -46 6 -56 20 -8 11 -23 20 -33 20
-10 0 -34 16 -54 35 -20 19 -44 35 -53 35 -23 0 -110 87 -110 110 0 9 -16 33
-35 53 -19 20 -35 44 -35 54 0 10 -9 25 -20 33 -14 10 -20 26 -20 56 0 25 -6
47 -15 54 -12 10 -15 44 -15 187 0 142 3 177 15 189 8 9 15 31 15 50 0 21 8
43 20 56 11 12 20 29 20 38 0 9 16 33 35 53 19 20 35 44 35 53 0 23 94 114
118 114 11 0 33 16 49 35 17 19 40 35 51 35 11 0 27 7 36 15 8 8 30 15 49 15
20 0 41 8 53 19 17 18 35 20 194 20 164 1 176 0 190 -19z"/>
<path d="M5610 4970 c-8 -11 -24 -20 -37 -20 -26 0 -63 -36 -63 -61 0 -9 -7
-22 -15 -29 -9 -8 -15 -29 -15 -56 0 -24 6 -49 15 -58 8 -8 15 -22 15 -31 0
-21 44 -65 65 -65 9 0 23 -7 31 -15 9 -9 34 -15 58 -15 27 0 48 6 56 15 7 8
20 15 29 15 25 0 61 37 61 63 0 13 9 29 20 37 14 10 20 26 20 50 0 22 -8 44
-20 58 -11 12 -20 30 -20 40 0 23 -30 52 -54 52 -9 0 -26 9 -38 20 -14 12 -36
20 -58 20 -24 0 -40 -6 -50 -20z"/>
<path d="M2100 2440 l0 -1060 115 0 c96 0 115 3 115 15 0 10 11 15 35 15 28 0
35 4 35 20 0 18 7 20 55 20 42 0 55 3 55 15 0 10 10 15 31 15 22 0 32 5 36 20
4 17 14 20 54 20 37 0 49 4 49 15 0 10 11 15 35 15 28 0 35 4 35 20 0 16 7 20
35 20 24 0 35 5 35 15 0 11 12 15 51 15 42 0 52 3 56 20 4 15 14 20 39 20 24
0 34 5 34 15 0 11 12 15 50 15 43 0 50 3 50 20 0 16 7 20 35 20 24 0 35 5 35
15 0 11 12 15 51 15 42 0 52 3 56 20 4 15 14 20 39 20 24 0 34 5 34 15 0 11
12 15 50 15 43 0 50 3 50 20 0 16 7 20 35 20 24 0 35 5 35 15 0 11 12 15 51
15 42 0 52 3 56 20 4 15 14 20 39 20 24 0 34 5 34 15 0 11 12 15 50 15 43 0
50 3 50 20 0 16 7 20 35 20 24 0 35 5 35 15 0 10 11 15 35 15 28 0 35 4 35 20
0 18 7 20 55 20 42 0 55 3 55 15 0 10 10 15 31 15 22 0 32 5 36 20 4 17 14 20
54 20 37 0 49 4 49 15 0 10 11 15 35 15 28 0 35 4 35 20 0 18 7 20 55 20 42 0
55 3 55 15 0 10 10 15 31 15 22 0 32 5 36 20 4 17 14 20 54 20 37 0 49 4 49
15 0 10 11 15 35 15 28 0 35 4 35 20 0 18 7 20 55 20 42 0 55 3 55 15 0 10 10
15 31 15 22 0 32 5 36 20 4 17 14 20 54 20 37 0 49 4 49 15 0 10 11 15 35 15
28 0 35 4 35 20 0 16 7 20 35 20 24 0 35 5 35 15 0 11 12 15 51 15 42 0 52 3
56 20 4 15 14 20 39 20 24 0 34 5 34 15 0 11 12 15 50 15 43 0 50 3 50 20 0
16 7 20 35 20 24 0 35 5 35 15 0 10 11 15 35 15 l35 0 0 415 0 415 -1690 0
-1690 0 0 -1060z m3188 868 c18 -18 16 -215 -2 -234 -22 -21 -2970 -21 -2992
0 -18 19 -20 216 -2 234 17 17 2979 17 2996 0z m-1994 -1260 c20 -19 -5 -38
-52 -38 -23 0 -45 -6 -52 -15 -7 -8 -20 -15 -29 -15 -10 0 -27 -9 -39 -20 -13
-12 -35 -20 -56 -20 -19 0 -41 -7 -50 -15 -8 -8 -23 -15 -33 -15 -10 0 -25 -9
-33 -20 -10 -14 -26 -20 -56 -20 -25 0 -47 -6 -54 -15 -7 -8 -20 -15 -29 -15
-10 0 -27 -9 -39 -20 -13 -12 -35 -20 -56 -20 -19 0 -41 -7 -50 -15 -8 -8 -23
-15 -33 -15 -10 0 -25 -9 -33 -20 -8 -11 -24 -20 -36 -20 -13 0 -29 -7 -38
-15 -8 -8 -30 -15 -48 -15 -20 0 -43 -8 -56 -20 -12 -11 -30 -20 -40 -20 -11
0 -25 -7 -32 -15 -15 -18 -42 -19 -58 -3 -17 17 -17 389 0 406 17 17 983 17
1002 0z"/>
</g>
</svg>
