<?xml version="1.0" encoding="UTF-8" standalone="no"?>
<svg
   xmlns:dc="http://purl.org/dc/elements/1.1/"
   xmlns:cc="http://creativecommons.org/ns#"
   xmlns:rdf="http://www.w3.org/1999/02/22-rdf-syntax-ns#"
   xmlns:svg="http://www.w3.org/2000/svg"
   xmlns="http://www.w3.org/2000/svg"
   viewBox="0 0 857.5 733.75"
   height="733.75"
   width="857.5"
   xml:space="preserve"
   version="1.1"
   id="svg2"><metadata
     id="metadata8"><rdf:RDF><cc:Work
         rdf:about=""><dc:format>image/svg+xml</dc:format><dc:type
           rdf:resource="http://purl.org/dc/dcmitype/StillImage" /></cc:Work></rdf:RDF></metadata><defs
     id="defs6" /><g
     transform="matrix(1.25,0,0,-1.25,0,733.75)"
     id="g10"><g
       transform="scale(0.1,0.1)"
       id="g12"><path
         id="path14"
         style="fill:#ffffff;fill-opacity:1;fill-rule:nonzero;stroke:none"
         d="m 6203.25,5293.03 0.5,0 c -61.48,35.48 -129.95,45.98 -205.42,32.49 l -0.5,0 c -75.47,-13.5 -135.94,-47.99 -180.93,-102.47 l -0.49,0 0,-0.5 c -37.49,-45.48 -56.48,-93.46 -56.48,-144.94 -163.44,-22.49 -316.38,-64.97 -459.82,-127.95 -34.48,144.45 -112.95,250.4 -234.41,316.88 -3.49,2 -6.49,4 -9.99,5.5 l 167.43,135.94 c 35.49,-24.99 77.47,-38.48 125.95,-40.48 39.98,-1.5 73.47,3 100.46,13.49 29.49,10.5 57.98,26.49 84.97,47.98 56.98,46.48 89.46,103.46 97.96,171.43 8.49,70.48 -9.5,131.95 -54.48,184.43 -44.98,51.98 -103.46,80.47 -175.43,84.97 l -1,0 c -69.97,3.49 -132.94,-17.5 -188.43,-62.98 l -0.5,-0.5 c -55.97,-44.98 -88.46,-101.96 -97.46,-170.43 l 0,-0.5 c -7.49,-58.98 4.5,-111.46 34.99,-157.94 l -198.42,-160.93 c -84.46,27.99 -177.93,40.98 -281.39,38.48 -146.94,-2.5 -303.88,-35.98 -471.31,-99.96 -52.48,-19.49 -104.46,-41.48 -155.94,-65.97 -18.99,73.47 -45.48,129.95 -79.47,168.43 -53.47,62.48 -110.95,78.47 -171.93,47.98 -52.98,-20.99 -95.96,-77.47 -128.94,-168.93 l 0,-0.5 c -29.49,-81.97 -45.98,-184.92 -48.98,-309.38 -138.45,-104.96 -273.4,-227.9 -404.84,-368.85 -276.89,-9 -536.79,-58.48 -780.19,-148.94 l 3717.51,0 c -11.99,8 -24.49,16 -37.98,23.49 -82.47,46.98 -191.43,80.47 -326.87,100.96 -143.94,21.99 -303.88,27.99 -479.31,18.49 9,54.48 14.5,105.96 16.99,154.44 2.5,50.48 2,97.46 -1.99,141.44 141.94,65.48 294.87,108.96 458.31,130.95 14.99,-30.49 42.48,-59.97 82.97,-89.46 3,-2 6.5,-4 9.99,-6.5 l 11.5,-6.49 c 60.98,-35.49 129.45,-45.99 205.42,-32.49 75.47,13.49 135.94,47.98 181.42,102.45 48.48,58.48 65.98,121.46 53.48,189.43 -11.99,67.97 -50.98,120.45 -116.95,157.44 z m -979.61,173.43 -3.5,4 c 1,-1 2,-2 3.5,-3.5 l 0,-0.5" /><path
         id="path16"
         style="fill:#ffffff;fill-opacity:1;fill-rule:nonzero;stroke:none"
         d="m 6702.05,4312.92 c -52.48,8.49 -99.46,0.5 -140.94,-23.99 l -0.5,-0.5 -0.5,-0.5 c -24.49,-14.5 -43.48,-32.49 -56.98,-52.98 -76.47,10.5 -152.94,15.5 -229.41,15 -18.49,60.97 -60.97,113.95 -127.45,158.93 l -3717.51,0 c -151.94,-55.98 -296.88,-127.95 -435.33,-215.42 -3,60.48 5.5,118.46 25,174.44 28.48,1 56.47,8.99 84.46,24.49 l 3.5,2 5,3 c 5.49,3.49 11.49,7.49 16.99,11.49 l -361.86,0 c -18.49,-15.49 -36.98,-29.99 -56.47,-42.48 -1,-0.5 -2,-1.5 -2.5,-2 -71.97,-44.98 -153.44,-69.47 -244.91,-72.97 29.49,36.48 56.49,75.97 81.97,117.45 l -1520.8873,0 c 10.4961,-42.48 26.9882,-81.97 48.4804,-117.95 40.4849,-70.47 117.4529,-129.45 230.9059,-177.43 95.461,-40.98 207.918,-69.47 336.368,-85.97 32.484,-4.49 64.972,-7.49 96.961,-9.99 -81.469,-46.49 -152.442,-99.46 -212.415,-158.94 -91.464,-90.46 -135.445,-177.43 -131.949,-260.89 -10.496,-4.5 -20.492,-9 -30.488,-14 l -100.457,-48.48 103.957,-42.48 c 75.469,-29.49 142.441,-69.48 201.918,-118.96 0,-15.49 3.5,-30.98 10.496,-47.48 l 0,1 c 12.496,-31.49 34.488,-55.97 66.973,-72.97 l 0.5,0 c 32.488,-16.49 64.976,-20.49 98.461,-11.99 l 0.5,0 c 24.992,6.49 44.984,17.99 60.476,35.48 23.988,26.49 33.485,59.48 28.488,98.96 l -1.5,7 c -1.5,4.5 -3,9 -4.496,13.5 -0.5,0.5 -0.5,1 -0.5,1.5 -0.5,1.5 -1,3 -1.5,4.49 -0.5,0.5 -0.5,0.5 -0.5,1 -0.5,0.5 -0.5,1.5 -1,2 -9.996,22.49 -24.492,40.99 -43.484,55.48 l 0.5,-0.5 c -7.496,6 -14.992,10.99 -22.988,14.99 -0.5,0 -0.5,0 -0.5,0 -20.492,10.5 -40.485,15.5 -60.477,16 -8.496,15.49 -14.992,29.98 -18.492,43.48 -3.5,15.49 -4,29.49 -0.5,41.98 22.492,66.48 122.949,121.95 301.379,165.44 0.5,-1.5 1,-2.5 2,-4 l 51.48,-116.95 98.96,-185.93 c -46.48,-27.99 -92.96,-56.98 -138.944,-86.47 -1,-0.5 -2,-1.5 -3,-2 C 799.91,3225.86 612.988,3089.91 428.559,2939.97 l 5995.601,0 c 0,4.49 0,8.49 -0.5,12.49 l -0.5,18 -12.49,13.49 c -221.42,243.9 -456.32,448.32 -703.72,613.26 l -62.98,42.48 -16.49,-87.97 c -119.45,54.98 -238.41,106.46 -357.86,154.44 246.4,52.48 450.32,108.96 611.76,168.93 235.91,88.47 367.85,179.93 396.34,274.89 66.97,0.5 133.94,-3.5 200.92,-11.99 2.5,-33.49 16.99,-64.47 42.98,-93.46 l 0.5,-0.5 c 31.49,-36.49 73.47,-58.48 126.45,-66.98 52.48,-8.49 99.46,0 141.45,24.49 l -0.5,0 c 46.98,27.49 73.96,64.98 80.46,112.96 l 0,-0.5 c 8.5,47.48 -5.5,91.46 -41.48,131.95 -31.49,36.48 -73.97,58.47 -126.45,66.97 z M 1854.99,4111 l 7.99,-5.5 c -46.48,-33.48 -91.46,-68.47 -135.94,-105.96 l 8,-10.49 -8,10.49 -10,13 -6.99,9 6.99,-9 c 13,7 25.5,14.5 37.99,21.99 36.49,22.99 69.97,48.48 99.96,76.47" /><path
         id="path18"
         style="fill:#ffffff;fill-opacity:1;fill-rule:nonzero;stroke:none"
         d="m 2864.09,5403.48 c 0,40.48 -14.5,74.97 -42.99,103.46 -28.49,28.49 -62.97,42.99 -103.46,42.99 -40.48,0 -74.96,-14 -103.45,-42.49 l 0,-0.5 -0.5,0 c -28.49,-28.49 -42.49,-62.98 -42.49,-103.46 0,-3.5 0,-7 0.5,-10.49 -12.99,-9 -25.49,-17.5 -37.98,-25.99 -23.99,20.99 -49.98,37.98 -78.47,50.98 -14,6.49 -33.49,13.49 -58.48,19.99 -72.47,17.49 -136.94,6.49 -193.42,-33.49 l 0.5,0 c -58.47,-38.98 -92.46,-96.46 -101.96,-172.43 -6.5,-2 -13.5,-4.5 -19.99,-7 l -14.99,-5.99 c -6.5,-2.5 -15,-6.5 -26,-13 l -1,-0.5 c -61.47,-32.49 -114.95,-67.47 -161.43,-104.95 l -5.5,-4.5 c -55.48,-45.48 -100.46,-95.47 -134.44,-148.95 -18.5,-28.98 -32.99,-56.97 -42.99,-83.96 2.5,61.48 -3,121.45 -16.49,178.93 -28.49,126.45 -104.46,225.41 -227.41,296.88 -81.47,48.48 -209.42,93.46 -382.85,134.94 l -0.5,0 c -94.456,21.5 -165.429,38.49 -213.409,49.98 -83.469,20.5 -154.438,39.99 -212.914,58.98 -154.442,50.48 -277.391,115.95 -368.356,195.92 l -116.453,98.96 34.488,-147.94 c 26.989,-114.45 28.489,-241.4 4.496,-381.85 l 0,-0.5 C 182.16,5266.04 149.672,5141.09 98.1914,4973.66 49.7109,4814.72 21.2227,4696.77 12.7266,4619.8 l 0,-0.5 C 4.23047,4541.83 8.22656,4471.86 23.7227,4408.88 l 1520.8873,0 c 20,33.99 38.99,69.47 56.98,106.46 35.99,76.47 61.98,150.44 77.47,222.41 4,-25.99 13.49,-50.48 28.99,-73.97 l 2,-4 3,-3.5 c 35.48,-42.48 82.96,-65.97 143.44,-70.47 -9,-28.99 -11,-56.98 -5.5,-84.47 -26.49,-34.98 -54.48,-65.97 -84.47,-92.46 l 361.86,0 c 27.99,21.49 48.98,48.98 62.98,81.97 l 0,0.5 0.5,1.5 c 1,2.5 2,5.49 2.99,7.99 18,48.48 16.5,94.46 -3.99,137.95 -2.5,7 -8.5,16.49 -17,28.99 l -3,3.5 c -2,2.49 -4,4.49 -5.49,5.99 -0.5,0.5 -0.5,0.5 -0.5,1 55.47,34.99 109.95,79.47 163.93,133.45 l 0.5,0 c 15.49,15.49 29.49,31.49 41.98,47.98 66.98,-12.99 126.95,-1 180.43,35.49 61.48,41.48 95.46,103.45 101.96,184.92 1.5,17.5 1.5,34.99 0.5,51.98 -1.5,21.49 -5.5,42.48 -11.49,63.48 l 0,0.5 c -3.5,12.99 -8,25.48 -13.5,37.98 12.5,10.5 25.49,20.49 39.48,30.99 15.5,-5.5 31.49,-8 48.98,-8 40.49,0 74.47,14 102.96,42.48 0.5,0.5 0.5,0.5 1,1 28.49,28.49 42.49,62.48 42.49,102.96 z m -580.77,-148.44 c 4.5,6.5 10.49,12 16.99,16.5 21.49,13.99 46.48,16.99 74.47,8.49 -33.49,-12.99 -63.97,-21.49 -91.46,-24.99 z m 174.93,-214.41 c -2,-1 -4,-2 -5.5,-3 4,7.5 8.5,15.49 13.5,22.99 l 0.5,1.5 1,1.5 c 0.99,1.5 1.99,3.5 2.99,5 0.5,0.5 0.5,0.5 0.5,0.5 6,8.49 12.5,16.99 19.49,25.49 -4.49,-22.99 -14.99,-40.99 -32.48,-53.98 z m -5,7.5 0.5,2 c -0.5,-1 -0.5,-2 -0.5,-2.5 0,0.5 0,0.5 0,0.5" /><path
         id="path20"
         style="fill:#ffffff;fill-opacity:1;fill-rule:nonzero;stroke:none"
         d="m 236.637,2778.04 -15.492,-13.5 -1,-20.49 c -28.489,-401.84 27.488,-803.68 167.933,-1205.02 2.996,-8.5 7.996,-15.99 14.492,-21.49 5,-4.5 10.996,-7.5 17.993,-10 l 2.5,-0.5 c 0.5,-0.5 1,-0.5 2,-0.5 l 138.945,-34.99 4675.132,0 c 30.49,49.49 58.47,99.97 84.46,151.45 29.99,56.47 55.98,114.45 77.47,173.93 l 92.47,-15.5 53.47,63.48 35.99,-373.36 129.95,0 176.43,13 c 1,0 2,0 3,0 l 1,0 2.49,0.5 c 2.5,0.5 4.5,1 7,1.5 l 397.34,118.95 -101.96,644.75 151.44,120.95 0.5,0.5 c 0.5,0.5 0.5,0.5 1,1 8,6.49 13.49,14.99 15.99,25.48 44.98,174.44 63.98,354.86 56.98,541.79 l -5995.601,0 C 364.086,2887.99 300.113,2834.01 236.637,2778.04" /><path
         id="path22"
         style="fill:#ffffff;fill-opacity:1;fill-rule:nonzero;stroke:none"
         d="m 1318.2,1243.65 c -0.5,0 -0.5,0 -1,-0.5 l -0.5,-0.5 c -34.98,-19.49 -55.97,-50.98 -63.47,-93.47 l 0,0.5 c -7.5,-38.48 -1,-75.47 19.99,-110.95 l 0,-0.5 c 6.5,-11 13.5,-20.99 21.99,-29.49 l -35.48,-96.959 c -46.98,25.489 -93.96,47.481 -140.94,66.473 l 0.5,0 c -17,6.996 -33.49,13.496 -49.99,19.492 l -59.97,21.994 -34.986,-343.865 C 893.375,578.414 849.391,485.449 842.395,396.984 l 0,-0.496 C 831.898,288.031 873.883,192.066 969.344,108.102 1068.3,20.6367 1176.26,-12.3516 1293.21,9.14063 1402.67,28.1328 1495.13,91.6094 1570.6,200.066 L 1926.96,300.523 1881.98,359 c -31.49,40.484 -62.98,78.969 -95.46,116.453 l 132.94,63.977 c 7.5,-4.5 16,-8.996 24.99,-12.496 33.49,-13.493 67.98,-14.493 102.46,-3.996 l -0.5,0 c 34.49,10.496 59.48,29.488 74.97,56.476 311.88,-151.941 660.74,-227.91 1046.58,-228.41 391.85,0 750.7,78.469 1076.58,235.906 l 81.46,40.985 c 169.43,90.464 329.87,202.918 481.31,337.363 175.93,156.442 319.87,324.872 431.83,506.292 l -4675.132,0 502.792,-126.94 107.96,119.45 c 41.99,-75.47 89.97,-148.94 143.44,-220.41 z m 197.43,-226.91 c 16.99,-16.994 34.48,-33.99 51.98,-50.482 22.48,-21.492 44.98,-41.985 68.47,-62.473 l -124.45,-161.937 -0.5,0.5 c -0.5,0.5 -1.5,1 -2,1.5 -2.5,2 -4.5,3.5 -6,4.996 l -0.5,0 c -36.49,29.488 -88.46,66.476 -155.44,111.457 l 36.49,99.961 c 31.48,-5.5 60.97,-0.5 88.46,15.992 l -0.5,0 c 18.5,10.496 32.99,23.996 43.99,40.486 z m 196.92,-176.931 c 54.47,-43.981 110.95,-84.965 168.93,-123.45 -4.5,-5.5 -8,-11.496 -11.5,-17.992 l 0,-0.5 c -12.99,-24.992 -16.49,-50.48 -9.99,-75.972 l -143.44,-69.469 c -1,0.996 -2,1.996 -3,2.996 -40.99,42.984 -82.97,83.469 -125.45,121.453 l 124.45,162.934" /><path
         id="path24"
         style="fill:#ffffff;fill-opacity:1;fill-rule:nonzero;stroke:none"
         d="m 5583,1471.55 1,-9.49 128.95,9.49 -129.95,0" /><path
         id="path26"
         style="fill:none;stroke:#ffffff;stroke-width:0.4998;stroke-linecap:butt;stroke-linejoin:miter;stroke-miterlimit:10;stroke-dasharray:none;stroke-opacity:1"
         d="m 1717.04,4012.54 -6.99,9" /><path
         id="path28"
         style="fill:none;stroke:#ffffff;stroke-width:0.4998;stroke-linecap:butt;stroke-linejoin:miter;stroke-miterlimit:10;stroke-dasharray:none;stroke-opacity:1"
         d="m 1735.04,3989.05 -8,10.49" /><path
         id="path30"
         style="fill:none;stroke:#000000;stroke-width:49.97999954;stroke-linecap:round;stroke-linejoin:round;stroke-miterlimit:10;stroke-dasharray:none;stroke-opacity:1"
         d="m 6591.09,4169.98 c -142.44,27.98 -284.88,36.48 -427.32,25.48" /><path
         id="path32"
         style="fill:#00746b;fill-opacity:1;fill-rule:nonzero;stroke:none"
         d="m 5863.89,3922.07 c 270.39,100.97 392.34,201.93 364.85,303.38 -17.49,64.48 -65.47,118.96 -144.94,163.44 -77.97,43.98 -181.43,75.47 -309.88,94.96 -273.39,41.49 -604.76,25.49 -994.6,-48.48 l -104.96,-784.69 c 519.29,79.47 916.14,169.94 1189.53,271.39" /><path
         id="path34"
         style="fill:#2a5953;fill-opacity:1;fill-rule:nonzero;stroke:none"
         d="m 6196.25,4212.46 c -16.49,53.48 -62.97,96.46 -139.44,129.95 -74.97,32.48 -174.43,53.48 -298.38,61.97 -263.4,19.5 -582.27,-13.99 -957.62,-99.46 l -100.96,-671.73 c 500.3,97.96 881.65,197.92 1145.04,300.38 260.4,101.46 377.85,194.42 351.36,278.89" /><path
         id="path36"
         style="fill:none;stroke:#000000;stroke-width:49.97999954;stroke-linecap:round;stroke-linejoin:round;stroke-miterlimit:10;stroke-dasharray:none;stroke-opacity:1"
         d="m 4674.36,3650.68 c 519.29,79.47 916.14,169.94 1189.53,271.39 270.39,100.97 392.34,201.93 364.85,303.38 -17.49,64.48 -65.47,118.96 -144.94,163.44 -77.97,43.98 -181.43,75.47 -309.88,94.96 -273.39,41.49 -604.76,25.49 -994.6,-48.48" /><path
         id="path38"
         style="fill:#f26d7d;fill-opacity:1;fill-rule:nonzero;stroke:none"
         d="m 6791.02,4212.96 c -24.5,27.49 -56.48,43.98 -96.97,50.48 -40.48,6.5 -76.47,0.5 -108.45,-17.99 -31.99,-19 -50.48,-44.99 -55.98,-77.47 -5,-32.49 5,-62.98 29.49,-90.47 24.49,-27.49 56.48,-44.48 96.96,-50.97 40.48,-6.5 76.47,0 108.45,18.49 32.49,18.49 50.98,44.48 55.98,76.97 5.5,32.48 -4.5,62.97 -29.48,90.96" /><path
         id="path40"
         style="fill:#b25963;fill-opacity:1;fill-rule:nonzero;stroke:none"
         d="m 6784.02,4163.48 c -16,17.99 -37.49,28.99 -63.98,33.48 -26.49,4 -49.98,0 -71.47,-11.99 -20.99,-12.49 -33.48,-29.49 -36.98,-50.98 -3.5,-21.49 3,-41.48 19.49,-59.97 15.99,-18 37.48,-28.99 63.97,-33.49 26.49,-4 50.48,0 71.97,12.49 21.5,12.5 33.49,28.99 36.49,50.48 3.5,21.5 -3,41.49 -19.49,59.98" /><path
         id="path42"
         style="fill:none;stroke:#000000;stroke-width:49.97999954;stroke-linecap:round;stroke-linejoin:round;stroke-miterlimit:10;stroke-dasharray:none;stroke-opacity:1"
         d="m 6694.05,4263.44 c -40.48,6.5 -76.47,0.5 -108.45,-17.99 -31.99,-19 -50.48,-44.99 -55.98,-77.47 -5,-32.49 5,-62.98 29.49,-90.47 24.49,-27.49 56.48,-44.48 96.96,-50.97 40.48,-6.5 76.47,0 108.45,18.49 32.49,18.49 50.98,44.48 55.98,76.97 5.5,32.48 -4.5,62.97 -29.48,90.96 -24.5,27.49 -56.48,43.98 -96.97,50.48 z" /><path
         id="path44"
         style="fill:#ffd064;fill-opacity:1;fill-rule:nonzero;stroke:none"
         d="m 5935.86,4245.45 c 0,41.48 -20,76.46 -59.48,105.95 -39.49,29.49 -86.97,43.99 -142.94,43.99 -55.98,0 -103.96,-14.5 -143.44,-43.99 -39.49,-29.49 -58.98,-64.47 -58.98,-105.95 0,-41.49 19.49,-76.47 58.98,-105.96 39.48,-29.49 87.46,-43.98 143.44,-43.98 55.97,0 103.45,14.49 142.94,43.98 39.48,29.49 59.48,64.47 59.48,105.96" /><path
         id="path46"
         style="fill:none;stroke:#000000;stroke-width:29.98800087;stroke-linecap:round;stroke-linejoin:round;stroke-miterlimit:10;stroke-dasharray:none;stroke-opacity:1"
         d="m 5876.38,4351.4 c -39.49,29.49 -86.97,43.99 -142.94,43.99 -55.98,0 -103.96,-14.5 -143.44,-43.99 -39.49,-29.49 -58.98,-64.47 -58.98,-105.95 0,-41.49 19.49,-76.47 58.98,-105.96 39.48,-29.49 87.46,-43.98 143.44,-43.98 55.97,0 103.45,14.49 142.94,43.98 39.48,29.49 59.48,64.47 59.48,105.96 0,41.48 -20,76.46 -59.48,105.95 z" /><path
         id="path48"
         style="fill:#2f211e;fill-opacity:1;fill-rule:nonzero;stroke:none"
         d="m 5770.92,4256.44 c 0,14.5 -7.49,26.49 -21.99,36.99 -14.49,10.49 -32.48,15.49 -52.98,15.49 -20.99,0 -38.98,-5 -53.48,-15.49 -14.49,-10.5 -21.49,-22.49 -21.49,-36.99 0,-14.49 7,-26.49 21.49,-36.98 14.5,-10.5 32.49,-15.5 53.48,-15.5 20.5,0 38.49,5 52.98,15.5 14.5,10.49 21.99,22.49 21.99,36.98" /><path
         id="path50"
         style="fill:none;stroke:#000000;stroke-width:29.98800087;stroke-linecap:round;stroke-linejoin:round;stroke-miterlimit:10;stroke-dasharray:none;stroke-opacity:1"
         d="m 5748.93,4293.43 c -14.49,10.49 -32.48,15.49 -52.98,15.49 -20.99,0 -38.98,-5 -53.48,-15.49 -14.49,-10.5 -21.49,-22.49 -21.49,-36.99 0,-14.49 7,-26.49 21.49,-36.98 14.5,-10.5 32.49,-15.5 53.48,-15.5 20.5,0 38.49,5 52.98,15.5 14.5,10.49 21.99,22.49 21.99,36.98 0,14.5 -7.49,26.49 -21.99,36.99 z" /><path
         id="path52"
         style="fill:none;stroke:#000000;stroke-width:49.97999954;stroke-linecap:round;stroke-linejoin:round;stroke-miterlimit:10;stroke-dasharray:none;stroke-opacity:1"
         d="m 5878.88,5040.13 c -223.41,-17.49 -428.83,-71.47 -615.75,-162.44" /><path
         id="path54"
         style="fill:none;stroke:#000000;stroke-width:49.97999954;stroke-linecap:round;stroke-linejoin:round;stroke-miterlimit:10;stroke-dasharray:none;stroke-opacity:1"
         d="m 5244.13,5489.95 -313.37,-254.4" /><path
         id="path56"
         style="fill:#7cc576;fill-opacity:1;fill-rule:nonzero;stroke:none"
         d="m 4671.36,5305.02 c -141.44,-2.5 -293.38,-34.98 -454.82,-96.46 -70.47,-26.49 -140.44,-57.47 -208.91,-92.96 -16.49,95.46 -43.99,164.93 -81.97,209.42 -35.48,41.48 -73.47,53.47 -113.45,34.98 -41.49,-18.49 -75.47,-65.47 -102.46,-140.44 -29.49,-83.47 -44.98,-189.43 -46.48,-318.38 -147.95,-109.95 -291.89,-240.9 -431.83,-392.34 367.35,-431.82 948.12,-693.72 1742.8,-786.18 42.48,95.46 83.47,193.92 122.45,296.38 104.46,-8 191.93,1 262.4,26.49 63.47,22.99 101.46,54.47 113.95,94.46 12.5,39.48 -4,75.97 -49.48,108.46 -49.98,36.48 -125.45,59.47 -226.41,69.47 41.99,148.44 65.98,278.38 71.98,390.84 13.49,250.9 -62.48,422.33 -227.92,514.29 -103.45,57.48 -226.91,84.97 -369.85,81.97" /><path
         id="path58"
         style="fill:#6f9b64;fill-opacity:1;fill-rule:nonzero;stroke:none"
         d="m 4944.25,5130.59 c -189.42,67.48 -407.33,42.98 -652.73,-73.47 -244.91,-115.45 -448.32,-299.88 -610.76,-552.28 348.86,-142.94 780.19,-379.35 1293.48,-709.21 28.99,47.48 51.48,86.96 67.97,119.45 20.5,39.48 37.99,79.97 52.48,120.95 79.47,-5.5 149.94,3 211.42,26.49 65.47,24.99 94.96,58.48 87.96,99.96 -8.49,50.48 -94.46,77.47 -257.39,80.97 18.99,96.96 31.48,182.43 37.48,256.89 9.5,113.96 7.5,213.42 -5.5,297.89 -11.49,71.47 -29.98,129.44 -55.47,173.93 -22.49,38.48 -49.48,72.47 -80.47,101.45 -29.99,27.5 -59.48,46.49 -88.47,56.98" /><path
         id="path60"
         style="fill:none;stroke:#000000;stroke-width:49.97999954;stroke-linecap:round;stroke-linejoin:miter;stroke-miterlimit:10;stroke-dasharray:none;stroke-opacity:1"
         d="m 4974.24,3722.66 c 42.48,95.46 83.47,193.92 122.45,296.38 104.46,-8 191.93,1 262.4,26.49 63.47,22.99 101.46,54.47 113.95,94.46 12.5,39.48 -4,75.97 -49.48,108.46 -49.98,36.48 -125.45,59.47 -226.41,69.47 41.99,148.44 65.98,278.38 71.98,390.84 13.49,250.9 -62.48,422.33 -227.92,514.29 -103.46,57.48 -226.91,84.97 -369.85,81.97 -141.44,-2.5 -293.38,-34.98 -454.82,-96.46 -70.47,-26.49 -140.44,-57.48 -208.91,-92.96 -16.5,95.46 -43.99,164.93 -81.97,209.42 -35.48,41.48 -73.47,53.47 -113.45,34.98 -41.49,-18.49 -75.47,-65.47 -102.46,-140.45 -29.49,-83.46 -44.98,-189.42 -46.48,-318.37 -147.95,-109.95 -291.89,-240.9 -431.83,-392.34" /><path
         id="path62"
         style="fill:none;stroke:#7cc576;stroke-width:79.96800232;stroke-linecap:round;stroke-linejoin:round;stroke-miterlimit:10;stroke-dasharray:none;stroke-opacity:1"
         d="m 4604.89,5117.6 c -98.96,5.99 -189.43,-19.49 -271.89,-76.47 -82.47,-57.98 -132.95,-130.95 -150.94,-218.42 -17.49,-87.96 2,-164.93 59.48,-230.9 56.97,-66.97 134.94,-103.46 233.9,-109.46 98.96,-6.49 189.92,19.49 272.39,77.47 82.47,57.48 132.45,129.95 149.94,217.91 18,87.47 -1.5,164.94 -58.47,231.41 -57.48,65.97 -135.45,101.96 -234.41,108.46 z" /><path
         id="path64"
         style="fill:#fff356;fill-opacity:1;fill-rule:nonzero;stroke:none"
         d="m 4900.27,4782.73 c 18,87.47 -1.5,164.93 -58.48,231.41 -57.47,65.97 -135.44,101.96 -234.4,108.45 -98.96,6 -189.43,-19.49 -271.89,-76.46 -82.47,-57.98 -132.95,-130.95 -150.94,-218.42 -17.5,-87.96 1.99,-164.93 59.48,-230.91 56.97,-66.97 134.94,-103.45 233.9,-109.45 98.96,-6.5 189.92,19.49 272.39,77.47 82.47,57.48 132.45,129.95 149.94,217.91" /><path
         id="path66"
         style="fill:#cbbb4e;fill-opacity:1;fill-rule:nonzero;stroke:none"
         d="m 4396.97,4955.16 c -70.47,-48.48 -113.45,-109.45 -129.95,-182.93 -16.49,-73.46 -1,-137.94 45.49,-193.42 46.98,-55.97 111.95,-86.46 194.42,-91.46 82.96,-5.5 159.43,16.49 229.41,64.97 69.97,47.98 112.95,108.96 128.95,182.43 16.49,73.47 1.5,137.95 -44.99,193.92 -46.98,54.98 -111.95,84.97 -194.92,90.47 -82.97,4.99 -158.93,-16.5 -228.41,-63.98" /><path
         id="path68"
         style="fill:none;stroke:#000000;stroke-width:29.98800087;stroke-linecap:round;stroke-linejoin:round;stroke-miterlimit:10;stroke-dasharray:none;stroke-opacity:1"
         d="m 4607.39,5122.59 c -98.96,6 -189.43,-19.49 -271.89,-76.46 -82.47,-57.98 -132.95,-130.95 -150.94,-218.42 -17.5,-87.96 1.99,-164.93 59.48,-230.91 56.97,-66.97 134.94,-103.45 233.9,-109.45 98.96,-6.5 189.92,19.49 272.39,77.47 82.47,57.48 132.45,129.95 149.94,217.91 18,87.47 -1.5,164.93 -58.48,231.41 -57.47,65.97 -135.44,101.96 -234.4,108.45 z" /><path
         id="path70"
         style="fill:#fff356;fill-opacity:1;fill-rule:nonzero;stroke:none"
         d="m 4408.97,5042.13 c -21.99,-15.5 -35.49,-34.49 -40.49,-56.98 -5.5,-22.99 -0.5,-42.98 14,-60.47 14.49,-17.5 34.98,-26.5 60.47,-27.99 25.5,-1.5 49.48,4.99 71.48,19.99 21.49,14.99 34.98,33.98 39.98,56.98 5,22.48 0.5,42.48 -14,59.97 -14.49,17.5 -34.98,26.99 -60.47,28.49 -25.99,1.5 -49.48,-5.5 -70.97,-19.99" /><path
         id="path72"
         style="fill:#6f4d4a;fill-opacity:1;fill-rule:nonzero;stroke:none"
         d="m 4462.45,4895.19 c -43.99,1.99 -84.47,-7.5 -120.95,-27.99 -36.49,-21.49 -58.98,-47.99 -66.98,-80.47 -8,-32.49 1,-60.48 26.49,-84.47 25.49,-24.49 59.98,-37.98 103.96,-40.48 43.48,-2 83.97,7.5 120.95,28.49 36.49,20.99 58.48,47.48 66.47,79.96 8,32.49 -0.5,60.48 -25.98,84.97 -25.5,24.49 -60.48,37.49 -103.96,39.99" /><path
         id="path74"
         style="fill:none;stroke:#000000;stroke-width:29.98800087;stroke-linecap:round;stroke-linejoin:round;stroke-miterlimit:10;stroke-dasharray:none;stroke-opacity:1"
         d="m 4341.5,4867.2 c -36.49,-21.49 -58.98,-47.99 -66.98,-80.47 -8,-32.49 1,-60.48 26.49,-84.47 25.49,-24.49 59.98,-37.98 103.96,-40.48 43.48,-2 83.97,7.5 120.95,28.49 36.49,20.99 58.48,47.48 66.47,79.96 8,32.49 -0.5,60.48 -25.98,84.97 -25.5,24.49 -60.48,37.49 -103.96,39.99 -43.99,1.99 -84.47,-7.5 -120.95,-27.99 z" /><path
         id="path76"
         style="fill:#f26d7d;fill-opacity:1;fill-rule:nonzero;stroke:none"
         d="m 5399.07,5819.82 c -57.48,2.5 -108.96,-14.5 -154.94,-51.98 -45.48,-36.49 -71.97,-82.97 -79.47,-138.45 -6.99,-55.48 7.5,-103.96 42.99,-145.44 35.98,-41.98 82.96,-64.47 140.94,-66.97 57.48,-3 108.96,13.99 154.44,50.98 46.48,37.48 72.97,83.46 79.97,138.94 7,55.48 -7.5,103.96 -42.98,145.44 -35.99,41.49 -82.97,63.98 -140.95,67.48" /><path
         id="path78"
         style="fill:#c25e69;fill-opacity:1;fill-rule:nonzero;stroke:none"
         d="m 5525.52,5675.38 c -25.99,29.48 -59.97,45.98 -101.46,48.48 -41.48,2 -78.47,-10.5 -111.45,-37.49 -32.99,-26.49 -51.98,-59.48 -57.48,-99.46 -5,-39.98 5.5,-74.97 30.99,-104.96 25.99,-29.99 59.97,-45.98 101.46,-47.98 41.48,-2.5 78.46,9.99 111.45,36.49 33.49,26.99 52.48,60.47 57.48,99.96 5,39.98 -5.5,74.97 -30.99,104.96" /><path
         id="path80"
         style="fill:none;stroke:#000000;stroke-width:49.97999954;stroke-linecap:round;stroke-linejoin:round;stroke-miterlimit:10;stroke-dasharray:none;stroke-opacity:1"
         d="m 5244.13,5767.84 c -45.48,-36.49 -71.97,-82.97 -79.47,-138.45 -6.99,-55.48 7.5,-103.96 42.99,-145.44 35.98,-41.98 82.96,-64.47 140.94,-66.97 57.48,-3 108.96,13.99 154.44,50.98 46.48,37.48 72.97,83.46 79.97,138.94 7,55.48 -7.5,103.96 -42.98,145.44 -35.99,41.49 -82.97,63.98 -140.95,67.48 -57.48,2.5 -108.96,-14.5 -154.94,-51.98 z" /><path
         id="path82"
         style="fill:#f26d7d;fill-opacity:1;fill-rule:nonzero;stroke:none"
         d="m 6006.83,5276.54 c -63.47,-11.5 -113.95,-39.99 -151.94,-85.47 -37.49,-45.48 -51.48,-94.96 -41.98,-147.94 9.49,-53.48 39.98,-94.47 91.46,-123.45 51.48,-29.49 108.45,-37.99 171.93,-26.49 63.47,11.49 113.95,39.48 151.94,84.96 37.98,45.49 51.98,94.96 42.48,148.44 -9.49,52.98 -40.48,93.96 -91.96,122.95 -51.48,29.49 -108.46,38.49 -171.93,27" /><path
         id="path84"
         style="fill:#c25e69;fill-opacity:1;fill-rule:nonzero;stroke:none"
         d="m 6067.8,5172.57 c -44.48,1.5 -84.46,-9.99 -119.95,-34.48 -35.48,-24.49 -55.97,-54.98 -61.47,-91.96 -5.5,-36.49 5.5,-68.98 32.98,-96.47 27.99,-27.48 64.48,-42.48 109.46,-44.48 44.48,-2 83.97,9 119.45,33.49 35.99,24.99 56.48,55.97 61.98,92.46 5.5,36.49 -6,68.98 -33.49,96.46 -27.49,27.49 -63.97,42.49 -108.96,44.98" /><path
         id="path86"
         style="fill:none;stroke:#000000;stroke-width:49.97999954;stroke-linecap:round;stroke-linejoin:round;stroke-miterlimit:10;stroke-dasharray:none;stroke-opacity:1"
         d="m 5854.89,5191.07 c -37.49,-45.48 -51.48,-94.96 -41.98,-147.94 9.49,-53.48 39.98,-94.47 91.46,-123.45 51.48,-29.49 108.45,-37.99 171.93,-26.49 63.47,11.49 113.95,39.48 151.94,84.96 37.98,45.49 51.98,94.96 42.48,148.44 -9.49,52.98 -40.48,93.96 -91.96,122.95 -51.48,29.49 -108.46,38.49 -171.93,27 -63.47,-11.5 -113.95,-39.99 -151.94,-85.47 z" /><path
         id="path88"
         style="fill:#6f9b64;fill-opacity:1;fill-rule:nonzero;stroke:none"
         d="m 3895.17,5185.07 c -17.99,21.49 -37.48,25.49 -57.97,12 -45.49,-30.49 -76.47,-118.46 -92.97,-264.4 l 197.43,132.95 c -11.5,56.97 -27,96.96 -46.49,119.45" /><path
         id="path90"
         style="fill:#c6996d;fill-opacity:1;fill-rule:nonzero;stroke:none"
         d="m 4869.79,3908.58 c -424.34,400.84 -946.63,601.26 -1565.88,601.26 -619.25,0 -1155.04,-200.42 -1606.36,-601.26 C 1246.73,3507.24 1011.83,3022.93 993.336,2455.66 974.844,1888.39 1177.26,1404.08 1601.59,1002.74 2026.42,601.406 2548.71,400.984 3167.96,400.984 c 619.25,0 1154.54,200.422 1605.86,601.756 451.32,401.34 686.73,885.65 705.22,1452.92 18.49,567.27 -184.43,1051.58 -609.25,1452.92" /><path
         id="path92"
         style="fill:#8f6c5e;fill-opacity:1;fill-rule:nonzero;stroke:none"
         d="m 3679.26,4500.34 c 174.43,-86.46 323.87,-172.93 448.32,-259.89 111.46,-77.97 212.92,-163.44 304.38,-256.9 -400.84,200.92 -801.68,286.39 -1202.02,256.4 -359.36,-26.99 -691.73,-143.45 -997.1,-348.86 -283.89,-190.93 -508.3,-432.83 -673.23,-725.71 -163.94,-290.88 -240.91,-582.27 -231.41,-874.65 0.5,-14.5 0,-33.49 -1,-57.98 -1.5,-27.49 -2,-46.98 -2,-57.98 l -205.41,-68.97 -79.97,-284.88 249.89,-449.82 151.95,165.43 c 48.48,-96.46 102.95,-185.92 163.43,-268.39 58.98,-79.97 131.95,-164.44 218.41,-253.9 359.36,-368.853 807.18,-553.279 1343.46,-553.279 536.29,0 1004.6,184.426 1403.94,553.279 119.46,110.46 220.42,219.91 302.38,329.37 81.47,107.46 153.44,227.41 216.92,358.85 l 203.91,-61.47 114.96,319.87 -228.91,57.48 c 16.99,88.46 27.99,178.93 32.98,272.39 15.5,289.38 -1.99,534.29 -52.47,734.7 -46.98,185.43 -125.45,350.86 -234.91,495.3 l 67.97,269.9 c -359.35,394.84 -797.18,631.25 -1314.47,709.71" /><path
         id="path94"
         style="fill:none;stroke:#000000;stroke-width:49.97999954;stroke-linecap:round;stroke-linejoin:round;stroke-miterlimit:10;stroke-dasharray:none;stroke-opacity:1"
         d="m 3303.91,4509.84 c -619.25,0 -1155.04,-200.42 -1606.36,-601.26 C 1246.73,3507.24 1011.83,3022.93 993.336,2455.66 974.84,1888.39 1177.26,1404.08 1601.59,1002.74 2026.42,601.406 2548.71,400.984 3167.96,400.984 c 619.25,0 1154.54,200.422 1605.86,601.756 451.32,401.34 686.73,885.65 705.22,1452.92 18.49,567.27 -184.43,1051.58 -609.26,1452.92 -424.33,400.84 -946.62,601.26 -1565.87,601.26 z" /><path
         id="path96"
         style="fill:#9ddff9;fill-opacity:1;fill-rule:nonzero;stroke:none"
         d="m 2552.21,5270.04 c -40.48,59.47 -91.96,97.96 -154.44,115.95 -62.47,18.49 -117.45,10.99 -165.93,-22.49 -48.48,-32.99 -75.47,-81.97 -81.47,-146.44 -5.49,-64.98 11.5,-126.95 51.98,-186.43 40.49,-58.97 91.46,-97.46 153.94,-115.45 62.98,-18.5 118.45,-11.5 166.93,21.49 48.48,33.49 74.97,82.47 80.47,147.44 6,64.98 -10.99,126.95 -51.48,185.93 z m -336.87,-62.48 c 3.5,46.98 22.5,81.97 56.98,105.46 34.49,23.49 73.97,27.99 118.45,14.49 45.49,-13.99 82.97,-42.48 112.46,-85.96 29.49,-43.48 42.48,-88.47 38.98,-135.95 -3,-47.48 -21.49,-82.46 -55.97,-105.96 -34.49,-23.49 -73.97,-27.98 -119.45,-13.99 -45.49,13.99 -82.47,42.48 -111.96,85.97 -29.49,43.48 -42.98,88.46 -39.49,135.94" /><path
         id="path98"
         style="fill:#86adc0;fill-opacity:1;fill-rule:nonzero;stroke:none"
         d="m 2599.69,5187.07 -30.99,64.97 -46.48,-43.98 14,-78.47 63.47,57.48" /><path
         id="path100"
         style="fill:none;stroke:#000000;stroke-width:29.98800087;stroke-linecap:round;stroke-linejoin:round;stroke-miterlimit:10;stroke-dasharray:none;stroke-opacity:1"
         d="m 2397.77,5385.99 c -62.47,18.49 -117.45,10.99 -165.93,-22.49 -48.48,-32.99 -75.47,-81.97 -81.47,-146.44 -5.49,-64.98 11.5,-126.95 51.98,-186.43 40.49,-58.97 91.46,-97.46 153.94,-115.45 62.98,-18.49 118.45,-11.5 166.93,21.49 48.48,33.49 74.97,82.47 80.47,147.44 6,64.98 -10.99,126.95 -51.48,185.93 -40.48,59.47 -91.96,97.96 -154.44,115.95 z" /><path
         id="path102"
         style="fill:none;stroke:#000000;stroke-width:29.98800087;stroke-linecap:round;stroke-linejoin:round;stroke-miterlimit:10;stroke-dasharray:none;stroke-opacity:1"
         d="m 2215.34,5207.56 c -3.49,-47.48 10,-92.46 39.49,-135.94 29.49,-43.49 66.47,-71.98 111.96,-85.97 45.48,-13.99 84.96,-9.5 119.45,13.99 34.48,23.5 52.97,58.48 55.97,105.96 3.5,47.48 -9.49,92.47 -38.98,135.95 -29.49,43.48 -66.97,71.97 -112.46,85.96 -44.48,13.5 -83.96,9 -118.45,-14.49 -34.48,-23.49 -53.48,-58.48 -56.98,-105.46 z" /><path
         id="path104"
         style="fill:#543e3c;fill-opacity:1;fill-rule:nonzero;stroke:none"
         d="m 2073.9,4677.27 c -33.49,8.5 -65.97,3 -98.46,-15.49 -32.49,-18.49 -55.48,-45.48 -67.97,-80.47 -11.5,-31.49 -12.5,-60.97 -2,-89.46 -48.98,-70.47 -104.96,-126.45 -168.43,-167.44 34.48,-58.47 72.47,-107.45 113.45,-146.44 32.49,-30.49 66.47,-54.97 102.96,-73.47 -21.49,111.96 -11,217.41 31.99,316.88 31.99,-7.5 63.47,-2 94.96,15.99 32.49,18.49 54.98,45.48 67.47,80.97 13,34.98 12,67.97 -2.49,98.96 -14.5,31.49 -38.49,51.48 -71.48,59.97" /><path
         id="path106"
         style="fill:#ffd064;fill-opacity:1;fill-rule:nonzero;stroke:none"
         d="m 936.855,4058.02 c -154.937,-61.47 -280.886,-139.44 -377.847,-234.9 -91.961,-90.47 -129.449,-176.93 -111.953,-258.4 58.476,19.49 118.949,26.49 180.925,21.49 20.493,91.96 147.442,163.93 380.85,215.42 80.97,-205.42 184.92,-393.85 312.37,-564.78 l 749.7,309.88 c -170.43,153.43 -313.37,315.37 -429.83,485.3 84.97,36.49 154.94,85.47 209.42,145.94 -40.98,38.99 -78.97,87.97 -113.45,146.44 -89.47,-57.47 -192.93,-84.96 -310.38,-82.96 -5,-252.4 51.48,-530.79 169.43,-834.67 -151.44,101.46 -279.39,204.42 -383.84,308.38 -104.46,104.46 -196.43,218.41 -275.395,342.86" /><path
         id="path108"
         style="fill:#543e3c;fill-opacity:1;fill-rule:nonzero;stroke:none"
         d="m 620.484,3393.79 c -5,-15.5 -4,-30.99 3,-47.49 8.496,-20.49 22.989,-36.48 43.981,-47.48 20.992,-10.49 42.484,-13.49 63.973,-7.99 21.492,5.49 36.488,16.99 45.484,35.48 9.496,18.5 9.996,37.49 1.5,57.98 -8.496,20.99 -23.492,36.99 -43.984,47.48 -20.993,10.5 -41.985,13.5 -62.973,8 -38.985,53.48 -53.481,102.46 -43.485,146.44 -61.976,5 -122.449,-2 -180.925,-21.49 -21.492,-6.5 -42.485,-14.99 -63.477,-25.49 89.465,-35.49 168.434,-83.97 236.906,-145.44" /><path
         id="path110"
         style="fill:#543e3c;fill-opacity:1;fill-rule:nonzero;stroke:none"
         d="m 1233.74,4269.44 -254.9,-114.46 c -9.496,-28.49 -23.492,-60.97 -41.985,-96.96 78.965,-124.45 170.935,-238.4 275.395,-342.86 104.45,-103.96 232.4,-206.92 383.84,-308.38 -117.95,303.88 -174.43,582.27 -169.43,834.67 -60.48,1.5 -124.95,10.5 -192.92,27.99" /><path
         id="path112"
         style="fill:#3a2b29;fill-opacity:1;fill-rule:nonzero;stroke:none"
         d="m 644.473,3393.79 c -17.493,-34.49 -11.493,-61.48 18.992,-81.97 30.488,-20.49 66.976,-19.99 108.457,2 27.488,80.97 -4.496,122.45 -94.961,124.95 -40.984,53.98 -59.477,102.96 -54.977,146.94 l -88.464,0 c 6.996,-64.48 43.98,-128.45 110.953,-191.92" /><path
         id="path114"
         style="fill:#3a2b29;fill-opacity:1;fill-rule:nonzero;stroke:none"
         d="m 2123.88,4655.78 -44.98,32.49 -144.94,-62.48 57.47,-24.99 c -31.98,-27.98 -44.48,-68.97 -37.48,-122.45 -29.99,-51.47 -57.48,-92.96 -82.97,-124.45 -30.98,-38.48 -63.47,-68.47 -97.46,-89.96 l 80.97,-99.46 c 18.49,6 29.49,5.5 31.99,-1 4.5,95.46 31.98,187.92 82.47,277.39 161.43,-31.99 213.41,39.48 154.93,214.91" /><path
         id="path116"
         style="fill:#cba357;fill-opacity:1;fill-rule:nonzero;stroke:none"
         d="m 533.52,3585.71 88.464,0 c 9.496,99.96 136.446,174.43 379.846,222.91 l 196.42,-389.84 62.48,36.48 486.3,254.4 c -81.46,134.95 -129.94,245.4 -145.44,331.37 151.94,34.99 236.41,75.97 252.9,123.45 l -80.97,99.46 c -63.47,-46.98 -130.95,-73.97 -202.92,-80.97 -70.47,-6.5 -141.44,6 -213.91,37.99 L 954.352,4038.53 C 823.902,3966.06 719.445,3889.09 641.977,3806.62 562.508,3722.16 526.52,3648.68 533.52,3585.71" /><path
         id="path118"
         style="fill:#000000;fill-opacity:1;fill-rule:nonzero;stroke:none"
         d="m 2080.4,4701.27 -0.5,0 c -39.49,10.49 -78.47,4.49 -116.95,-18 -37.99,-21.49 -64.48,-52.98 -78.97,-93.46 -12.5,-32.49 -14.5,-63.98 -6,-93.96 -45.48,-62.98 -96.96,-112.96 -154.44,-150.44 -85.46,-54.48 -183.92,-80.97 -296.38,-78.97 -58.98,1.5 -121.45,10.49 -186.93,26.99 l -8.49,2 -272.892,-122.45 -3.496,-10.5 c -8.5,-25.49 -20.493,-53.48 -36.489,-84.97 -154.437,-61.97 -279.886,-140.94 -377.347,-236.9 -91.465,-89.97 -132.45,-176.43 -122.453,-259.4 -15.493,-5.5 -30.985,-12 -46.481,-19.49 l -49.98,-24.49 51.98,-21.49 c 81.469,-31.99 154.438,-75.47 218.414,-130.95 -2,-15.49 0.5,-31.49 7.496,-47.98 0,0 0,0 0,-0.5 10.496,-25.99 28.988,-45.98 55.477,-59.98 l 0.5,0 c 26.488,-13.49 53.48,-16.49 80.969,-9.99 28.988,7.5 49.48,23.49 61.972,48.98 l 0,-0.5 c 12.496,24.99 13.496,51.48 2.5,78.97 l -0.5,0 c -10.996,26.49 -29.488,46.48 -55.476,59.97 -20.993,10.5 -41.985,15 -62.977,13 -27.488,41.48 -37.484,79.47 -30.484,113.95 20.488,79.47 134.445,143.45 341.363,191.43 80.464,-199.43 182.924,-382.85 307.374,-550.28 l 11.5,-15.5 804.18,332.37 -29,26.49 c -160.43,144.94 -296.87,296.88 -408.83,456.32 67.47,32.48 125.45,72.97 172.93,121.45 28.49,-24.49 58.98,-44.99 90.46,-60.98 l 44.49,-22.99 -9,49.98 c -19.49,100.46 -11.49,194.92 23.49,284.39 30.49,-2.5 60.98,4.5 91.46,21.99 37.49,21.99 63.98,53.48 78.47,94.46 l 0,-0.5 c 15.5,41.98 14,81.47 -3.5,118.45 l 0.5,0 c -18.49,38.49 -47.48,62.98 -87.96,73.48 z M 576.5,3805.12 c 94.965,93.47 218.414,169.93 369.852,229.41 l 4.5,2 4,1.5 4.496,8.5 c 16.992,32.98 30.488,62.97 39.984,89.96 l 236.908,106.46 c 66.47,-16.5 129.94,-24.99 189.92,-26.49 l 0.5,0 c 116.95,-2 220.41,23.99 310.88,78.47 26.49,-41.99 54.98,-78.97 85.46,-110.46 -51.48,-53.48 -115.45,-96.46 -191.92,-129.45 l -27.49,-12.49 16.99,-24.49 c 110.46,-161.94 245.4,-316.38 404.84,-463.32 L 1329.7,3267.34 c -120.45,164.93 -219.91,345.86 -297.38,543.28 l -8,19.99 -20.99,-4.5 C 764.926,3773.64 632.48,3698.66 605.988,3602.2 c -46.48,1.5 -92.461,-3.5 -136.945,-15.49 -5.996,68.97 29.988,141.94 107.457,218.41 z m 74.973,-380.35 8.996,-12.99 17.492,3.5 c 14.992,4 29.988,2 45.48,-6 l -0.5,0 c 15.497,-7.49 25.993,-18.99 32.489,-34.49 5.496,-12.99 4.996,-25.49 -0.5,-37.48 l -0.5,0 c -5.496,-11.5 -15.492,-18.99 -28.989,-22.49 -15.492,-3.5 -30.988,-1.5 -46.48,6 -15.496,7.99 -25.992,19.49 -31.988,34.48 l 0,0.5 -0.5,0 c -4.496,10.5 -4.996,20.49 -2,29.99 l 4.5,16.5 -11.496,9.99 c -56.477,50.48 -122.45,93.96 -197.922,129.95 l 33.988,14.49 c 41.484,11.5 83.465,16.99 126.949,15.99 -5,-45.48 11.996,-94.46 50.981,-147.94 z M 1987.94,4639.79 c 26.49,15.49 52.97,19.49 79.96,13 25.49,-6.5 43.49,-22 54.98,-45.99 l 0,-0.5 c 11.5,-24.49 12,-50.98 1.5,-79.47 -10.49,-29.49 -29.49,-52.47 -56.48,-67.97 -25.49,-14.49 -50.97,-18.99 -76.97,-13.49 l -20.49,4.49 -7.99,-18.49 c -38.49,-87.96 -51.98,-180.92 -41.49,-278.89 -21.99,11.5 -47.98,29.49 -77.96,53.98 -28.5,29.99 -54.98,64.98 -80.47,104.96 60.97,41.48 115.45,96.96 163.43,165.94 l 7.5,9.99 -4.5,12.99 c -8,23 -7.5,46.98 2,71.98 l 0,0.5 c 10.49,29.48 29.49,51.47 56.98,66.97" /><path
         id="path120"
         style="fill:#543e3c;fill-opacity:1;fill-rule:nonzero;stroke:none"
         d="m 1426.66,4216.46 -0.5,0 c -59.98,1.5 -123.45,9.99 -189.92,26.49 L 999.332,4136.49 c -9.496,-26.99 -22.992,-56.98 -39.984,-89.96 l -4.496,-8.5 -4,-1.5 c 75.468,-115.95 162.938,-222.91 261.398,-321.37 104.45,-103.96 232.4,-206.92 383.84,-308.38 -113.95,293.88 -170.43,563.77 -169.43,809.68" /><path
         id="path122"
         style="fill:none;stroke:#000000;stroke-width:9.99600029;stroke-linecap:round;stroke-linejoin:round;stroke-miterlimit:10;stroke-dasharray:none;stroke-opacity:1"
         d="m 1426.66,4216.46 c -1,-245.91 55.48,-515.8 169.43,-809.68 -151.44,101.46 -279.39,204.42 -383.84,308.38 -98.46,98.46 -185.93,205.42 -261.398,321.37" /><path
         id="path124"
         style="fill:#94625e;fill-opacity:1;fill-rule:nonzero;stroke:none"
         d="m 2682.16,5371 -26.49,22.49 c -148.94,-114.46 -271.89,-176.93 -368.35,-188.43 0.5,-77.47 38.98,-129.45 115.45,-156.43 39.48,88.46 135.44,187.42 288.89,295.88 l -9.5,26.49" /><path
         id="path126"
         style="fill:#f26d7d;fill-opacity:1;fill-rule:nonzero;stroke:none"
         d="m 2287.32,5205.06 c -47.48,-1.5 -82.47,-3.5 -104.96,-5.99 -40.48,-4.5 -79.97,-17 -119.45,-37.49 -128.45,-67.97 -222.91,-148.44 -282.39,-241.4 -57.98,-90.47 -67.97,-167.44 -29.99,-230.41 48.48,-54.98 124.95,-68.47 228.91,-39.98 106.96,28.98 211.92,94.96 314.37,197.42 31.49,31.48 55.48,65.47 71.98,102.45 8.49,21.5 20.99,54.48 36.98,98.97 -76.47,26.98 -114.95,78.96 -115.45,156.43" /><path
         id="path128"
         style="fill:#74504d;fill-opacity:1;fill-rule:nonzero;stroke:none"
         d="m 2628.18,5317.52 0,35.98 c -136.95,-124.45 -242.4,-202.42 -316.87,-233.9 l 81.96,-76.97 c 42.49,72.47 120.46,163.93 234.91,274.89" /><path
         id="path130"
         style="fill:#a3555c;fill-opacity:1;fill-rule:nonzero;stroke:none"
         d="m 1851.99,4714.76 c 36.49,-41.49 94.46,-51.98 173.43,-30.49 80.97,21.99 147.94,56.98 200.42,104.96 52.48,48.48 83.97,82.47 94.96,102.96 10.5,20.49 23.49,45.48 38.99,74.97 5.5,22.49 16.99,47.48 33.48,75.47 l -81.96,76.97 c -19.99,-8.5 -37.49,-13.5 -52.98,-15 -35.99,-1.5 -64.97,-6.49 -86.47,-15.49 -21.49,-9 -61.97,-35.99 -121.45,-80.97 -59.48,-44.48 -114.95,-92.96 -165.43,-144.44 -50.48,-51.48 -61.48,-101.46 -32.99,-148.94" /><path
         id="path132"
         style="fill:none;stroke:#000000;stroke-width:29.98800087;stroke-linecap:round;stroke-linejoin:round;stroke-miterlimit:10;stroke-dasharray:none;stroke-opacity:1"
         d="m 2402.77,5048.63 c -76.47,26.98 -114.95,78.96 -115.45,156.43" /><path
         id="path134"
         style="fill:none;stroke:#000000;stroke-width:49.97999954;stroke-linecap:round;stroke-linejoin:round;stroke-miterlimit:10;stroke-dasharray:none;stroke-opacity:1"
         d="m 2682.16,5371 9.5,-26.49 c -153.45,-108.46 -249.41,-207.42 -288.89,-295.88 -15.99,-44.49 -28.49,-77.47 -36.98,-98.97 -16.5,-36.98 -40.49,-70.97 -71.98,-102.45 -102.45,-102.46 -207.41,-168.44 -314.37,-197.42 -103.96,-28.49 -180.43,-15 -228.91,39.98 -37.98,62.97 -27.99,139.94 29.99,230.41 59.48,92.96 153.94,173.43 282.39,241.4 39.48,20.49 78.97,32.99 119.45,37.49 22.49,2.49 57.48,4.49 104.96,5.99 96.46,11.5 219.41,73.97 368.35,188.43 l 26.49,-22.49 z" /><path
         id="path136"
         style="fill:none;stroke:#f26d7d;stroke-width:49.97999954;stroke-linecap:round;stroke-linejoin:round;stroke-miterlimit:10;stroke-dasharray:none;stroke-opacity:1"
         d="m 1915.96,4914.68 -59.97,-54.98 64.97,-27.49 37.49,-80.47 49.98,90.47 124.95,7.49 -59.98,67.48 0,94.96 -82.47,-37.48" /><path
         id="path138"
         style="fill:#f26d7d;fill-opacity:1;fill-rule:nonzero;stroke:none"
         d="m 2814.11,5403.48 c 0,26.49 -9.5,49.48 -28.49,68.48 -18.49,18.49 -41.49,27.99 -67.98,27.99 -26.48,0 -49.48,-9.5 -68.47,-27.99 -18.49,-19 -27.99,-41.99 -27.99,-68.48 0,-26.49 9.5,-49.48 27.99,-67.97 18.99,-18.99 41.99,-28.49 68.47,-28.49 26.49,0 49.49,9.5 67.98,28.49 18.99,18.49 28.49,41.48 28.49,67.97" /><path
         id="path140"
         style="fill:none;stroke:#000000;stroke-width:49.97999954;stroke-linecap:round;stroke-linejoin:round;stroke-miterlimit:10;stroke-dasharray:none;stroke-opacity:1"
         d="m 2785.62,5471.96 c -18.49,18.49 -41.49,27.99 -67.98,27.99 -26.48,0 -49.48,-9.5 -68.47,-27.99 -18.49,-19 -27.99,-41.99 -27.99,-68.48 0,-26.49 9.5,-49.48 27.99,-67.97 18.99,-18.99 41.99,-28.49 68.47,-28.49 26.49,0 49.49,9.5 67.98,28.49 18.99,18.49 28.49,41.48 28.49,67.97 0,26.49 -9.5,49.48 -28.49,68.48 z" /><path
         id="path142"
         style="fill:#ffd064;fill-opacity:1;fill-rule:nonzero;stroke:none"
         d="m 2071.4,5017.14 -41.98,-19.5 -155.44,-141.44 44.98,-18.99 37.49,-80.47 49.98,90.47 124.95,7.49 -59.98,67.48 0,94.96" /><path
         id="path144"
         style="fill:#ffffff;fill-opacity:1;fill-rule:nonzero;stroke:none"
         d="m 2029.42,4997.64 -40.48,-17.99 -69.98,39.99 -5,-99.96 -59.97,-54.98 19.99,-8.5 155.44,141.44" /><path
         id="path146"
         style="fill:none;stroke:#000000;stroke-width:19.99200058;stroke-linecap:round;stroke-linejoin:round;stroke-miterlimit:10;stroke-dasharray:none;stroke-opacity:1"
         d="m 2029.42,4997.64 -40.48,-17.99 -69.98,39.99 -5,-99.96 -59.97,-54.98 19.99,-8.5 44.98,-18.99 37.49,-80.47 49.98,90.47 124.95,7.49 -59.98,67.48 0,94.96 -41.98,-19.5 z" /><path
         id="path148"
         style="fill:#9ddff9;fill-opacity:1;fill-rule:nonzero;stroke:none"
         d="m 2603.69,5084.11 c 1.5,15 1.5,29.99 0.5,44.48 l -61.48,0 c 0.5,-7.5 0,-15.49 -0.5,-22.99 -3,-47.48 -21.49,-82.47 -55.97,-105.96 -34.49,-23.49 -73.97,-27.98 -119.45,-13.99 -45.49,13.99 -82.47,42.48 -111.96,85.97 -29.49,43.48 -42.98,88.46 -39.49,135.94 3.5,46.98 22.5,81.97 56.98,105.46 34.49,23.49 73.97,27.99 118.45,14.49 2.5,-0.5 4.5,-1.5 7,-2.49 l 0,60.97 c -62.47,18.49 -117.45,10.99 -165.93,-22.49 -48.48,-32.99 -75.47,-81.97 -81.47,-146.44 -5.49,-64.98 11.5,-126.95 51.98,-186.43 40.49,-58.97 91.46,-97.46 153.94,-115.45 62.98,-18.5 118.45,-11.5 166.93,21.49 48.48,33.49 74.97,82.47 80.47,147.44" /><path
         id="path150"
         style="fill:none;stroke:#000000;stroke-width:29.98800087;stroke-linecap:round;stroke-linejoin:round;stroke-miterlimit:10;stroke-dasharray:none;stroke-opacity:1"
         d="m 2542.71,5128.59 c 0.5,-7.49 0,-15.49 -0.5,-22.99 -3,-47.48 -21.49,-82.46 -55.97,-105.96 -34.49,-23.49 -73.97,-27.98 -119.45,-13.99 -45.49,13.99 -82.47,42.48 -111.96,85.97 -29.49,43.48 -42.98,88.46 -39.49,135.94 3.5,46.98 22.5,81.97 56.98,105.46 34.49,23.49 73.97,27.99 118.45,14.49 2.5,-0.5 4.5,-1.49 7,-2.49" /><path
         id="path152"
         style="fill:none;stroke:#000000;stroke-width:29.98800087;stroke-linecap:round;stroke-linejoin:round;stroke-miterlimit:10;stroke-dasharray:none;stroke-opacity:1"
         d="m 2397.77,5385.99 c -62.47,18.49 -117.45,10.99 -165.93,-22.49 -48.48,-32.99 -75.47,-81.97 -81.47,-146.44 -5.49,-64.98 11.5,-126.95 51.98,-186.43 40.49,-58.97 91.46,-97.46 153.94,-115.45 62.98,-18.49 118.45,-11.5 166.93,21.49 48.48,33.49 74.97,82.47 80.47,147.44 1.5,15 1.5,29.99 0.5,44.48" /><path
         id="path154"
         style="fill:#935a8c;fill-opacity:1;fill-rule:nonzero;stroke:none"
         d="m 1630.08,5031.13 c -25.99,112.46 -93.96,200.42 -203.92,264.9 -78.47,45.98 -201.92,88.96 -369.35,129.44 -94.462,21.49 -165.435,38.49 -213.915,49.98 -84.965,20.5 -156.938,40.49 -216.415,59.98 -162.433,52.98 -290.882,121.45 -386.343,205.92 28.488,-120.46 30.488,-254.4 4.996,-401.84 -13.992,-83.47 -46.981,-209.92 -99.461,-380.35 -47.4806,-154.94 -74.9689,-269.89 -83.465,-344.86 -12.4961,-117.95 4.9961,-217.41 52.981,-297.88 36.484,-61.48 105.957,-113.96 207.414,-156.94 91.964,-39.48 199.421,-66.97 322.871,-82.47 117.953,-15.49 229.41,-17.49 334.867,-6.49 109.46,11.49 190.92,34.98 244.9,70.97 139.45,92.96 249.4,224.91 330.87,395.34 84.46,177.93 108.96,342.86 73.97,494.3" /><path
         id="path156"
         style="fill:none;stroke:#000000;stroke-width:49.97999954;stroke-linecap:round;stroke-linejoin:miter;stroke-miterlimit:10;stroke-dasharray:none;stroke-opacity:1"
         d="m 1426.16,5296.03 c -78.47,45.98 -201.92,88.96 -369.35,129.44 -94.462,21.49 -165.435,38.49 -213.915,49.98 -84.965,20.5 -156.938,40.49 -216.415,59.98 -162.433,52.98 -290.882,121.45 -386.343,205.92 28.488,-120.46 30.488,-254.4 4.996,-401.84 -13.992,-83.47 -46.981,-209.92 -99.461,-380.35 -47.4806,-154.94 -74.9689,-269.89 -83.465,-344.86 -12.4961,-117.95 4.9961,-217.41 52.981,-297.88 36.484,-61.48 105.957,-113.96 207.414,-156.94 91.964,-39.48 199.421,-66.97 322.871,-82.46 117.953,-15.5 229.41,-17.5 334.867,-6.5 109.46,11.49 190.92,34.98 244.9,70.97 139.45,92.96 249.4,224.91 330.87,395.34 84.46,177.93 108.96,342.86 73.97,494.3 -25.99,112.46 -93.96,200.42 -203.92,264.9 z" /><path
         id="path158"
         style="fill:#674654;fill-opacity:1;fill-rule:nonzero;stroke:none"
         d="m 1576.1,4861.7 c -11.49,120.45 -64.47,218.41 -159.94,294.88 -95.46,76.47 -184.92,118.96 -269.39,126.45 -84.46,8 -172.426,21.49 -264.391,40.99 -92.465,19.49 -178.43,44.98 -258.899,76.46 -80.464,31.49 -171.429,83.47 -272.89,154.94 21.492,-103.46 17.496,-217.91 -11.492,-342.86 -15.996,-70.47 -50.981,-176.93 -105.461,-320.37 -48.981,-130.45 -78.969,-227.41 -89.461,-290.89 -15.996,-99.96 -4,-185.42 36.484,-255.89 31.488,-53.48 81.465,-104.96 149.938,-153.94 68.472,-48.48 160.437,-80.47 275.39,-94.96 114.953,-14.5 225.41,-20.49 331.367,-18.5 105.465,2.5 201.425,30.99 286.885,85.47 85.47,54.48 168.44,154.44 248.9,299.88 79.97,145.44 114.46,277.89 102.96,398.34" /><path
         id="path160"
         style="fill:none;stroke:#935a8c;stroke-width:89.96399689;stroke-linecap:round;stroke-linejoin:miter;stroke-miterlimit:10;stroke-dasharray:none;stroke-opacity:1"
         d="m 1273.22,5249.04 c 97.96,-19.49 166.44,-73.97 205.92,-162.93 44.98,-102.46 36.99,-229.41 -23.99,-379.85 -34.99,-86.46 -68.47,-157.44 -100.46,-213.41 -8.5,-15 -16.99,-28.99 -25.49,-41.49 -37.49,-56.47 -78.47,-100.96 -122.95,-132.44 -10.5,-7.5 -21.49,-14.5 -32.49,-20.49 -51.48,-28.49 -112.45,-44.49 -182.424,-47.48 -11.996,-0.5 -24.492,-1 -36.984,-0.5 -86.469,1.99 -192.926,22.48 -319.375,60.97 -153.938,46.48 -263.895,114.96 -330.368,204.42 -59.976,80.46 -73.968,160.93 -42.48,241.4 31.984,80.47 99.457,135.95 202.918,166.44 115.453,33.48 250.398,25.98 404.836,-22.5 7.496,126.95 54.98,222.91 142.447,288.39 78.47,58.97 165.43,78.97 260.89,59.47 z" /><path
         id="path162"
         style="fill:#ffca6d;fill-opacity:1;fill-rule:nonzero;stroke:none"
         d="m 1268.22,5259.04 c -95.46,19.49 -182.42,-0.5 -260.89,-59.48 -87.467,-65.47 -134.947,-161.43 -142.443,-288.38 -154.438,48.48 -289.387,55.98 -404.84,22.49 -103.457,-30.49 -170.93,-85.96 -202.918,-166.43 -31.488,-80.47 -17.492,-160.94 42.484,-241.41 66.473,-89.46 176.43,-157.93 330.367,-204.42 69.473,57.48 141.442,108.96 215.915,154.95 65.972,40.48 133.945,76.96 204.415,108.95 71.97,32.99 145.94,61.48 222.41,84.97 57.98,17.99 116.96,33.48 177.43,45.98 60.98,150.44 68.98,277.39 23.99,379.85 -39.48,88.96 -107.96,143.44 -205.92,162.93" /><path
         id="path164"
         style="fill:#ffffff;fill-opacity:1;fill-rule:nonzero;stroke:none"
         d="m 1450.15,4716.26 c -60.47,-12.5 -119.45,-27.99 -177.43,-45.98 l 76.97,-167.44 c 31.99,55.98 65.47,126.95 100.46,213.42" /><path
         id="path166"
         style="fill:#ffffff;fill-opacity:1;fill-rule:nonzero;stroke:none"
         d="m 845.895,4476.36 c -74.473,-45.99 -146.442,-97.47 -215.915,-154.95 126.45,-38.48 232.907,-58.97 319.372,-60.97 12.496,-0.5 24.992,0 36.984,0.5 l -140.441,215.42" /><path
         id="path168"
         style="fill:#ffffff;fill-opacity:1;fill-rule:nonzero;stroke:none"
         d="m 1324.2,4461.36 c 8.5,12.5 17,26.49 25.49,41.48 l -76.97,167.44 c -76.47,-23.49 -150.44,-51.98 -222.41,-84.97 l 150.94,-256.4 c 44.48,31.49 85.47,75.97 122.95,132.45" /><path
         id="path170"
         style="fill:#ffffff;fill-opacity:1;fill-rule:nonzero;stroke:none"
         d="m 1168.77,4308.42 c 10.99,6 21.98,12.99 32.48,20.49 l -150.94,256.4 c -70.47,-31.99 -138.443,-68.47 -204.415,-108.95 l 140.441,-215.42 c 69.974,3 130.954,18.99 182.434,47.48" /><path
         id="path172"
         style="fill:none;stroke:#000000;stroke-width:29.98800087;stroke-linecap:round;stroke-linejoin:miter;stroke-miterlimit:10;stroke-dasharray:none;stroke-opacity:1"
         d="m 629.98,4321.42 c -153.937,46.48 -263.894,114.95 -330.367,204.42 -59.976,80.46 -73.972,160.93 -42.484,241.4 31.988,80.47 99.461,135.94 202.918,166.43 115.453,33.49 250.402,25.99 404.84,-22.49 7.496,126.95 54.976,222.91 142.443,288.39 78.47,58.97 165.43,78.96 260.89,59.47 97.96,-19.49 166.44,-73.97 205.92,-162.93 44.99,-102.46 36.99,-229.41 -23.99,-379.85" /><path
         id="path174"
         style="fill:none;stroke:#000000;stroke-width:29.98800087;stroke-linecap:round;stroke-linejoin:miter;stroke-miterlimit:10;stroke-dasharray:none;stroke-opacity:1"
         d="m 1450.15,4716.26 c -60.47,-12.5 -119.45,-27.99 -177.43,-45.98" /><path
         id="path176"
         style="fill:none;stroke:#000000;stroke-width:29.98800087;stroke-linecap:round;stroke-linejoin:miter;stroke-miterlimit:10;stroke-dasharray:none;stroke-opacity:1"
         d="M 845.895,4476.36 C 771.422,4430.37 699.453,4378.89 629.98,4321.41" /><path
         id="path178"
         style="fill:none;stroke:#000000;stroke-width:29.98800087;stroke-linecap:round;stroke-linejoin:miter;stroke-miterlimit:10;stroke-dasharray:none;stroke-opacity:1"
         d="m 1349.69,4502.84 c -8.49,-14.99 -16.99,-28.98 -25.49,-41.48 -37.48,-56.48 -78.47,-100.96 -122.95,-132.45" /><path
         id="path180"
         style="fill:none;stroke:#000000;stroke-width:29.98800087;stroke-linecap:round;stroke-linejoin:miter;stroke-miterlimit:10;stroke-dasharray:none;stroke-opacity:1"
         d="m 986.336,4260.94 c -11.992,-0.5 -24.488,-1 -36.984,-0.5 -86.465,2 -192.922,22.49 -319.372,60.97" /><path
         id="path182"
         style="fill:none;stroke:#000000;stroke-width:29.98800087;stroke-linecap:round;stroke-linejoin:miter;stroke-miterlimit:10;stroke-dasharray:none;stroke-opacity:1"
         d="m 1201.25,4328.91 c -10.5,-7.49 -21.49,-14.49 -32.48,-20.49 -51.48,-28.49 -112.46,-44.48 -182.434,-47.48" /><path
         id="path184"
         style="fill:none;stroke:#000000;stroke-width:29.98800087;stroke-linecap:round;stroke-linejoin:miter;stroke-miterlimit:10;stroke-dasharray:none;stroke-opacity:1"
         d="m 1050.31,4585.31 150.94,-256.4" /><path
         id="path186"
         style="fill:none;stroke:#000000;stroke-width:29.98800087;stroke-linecap:round;stroke-linejoin:miter;stroke-miterlimit:10;stroke-dasharray:none;stroke-opacity:1"
         d="m 1450.15,4716.26 c -34.99,-86.47 -68.47,-157.44 -100.46,-213.42" /><path
         id="path188"
         style="fill:none;stroke:#000000;stroke-width:29.98800087;stroke-linecap:round;stroke-linejoin:miter;stroke-miterlimit:10;stroke-dasharray:none;stroke-opacity:1"
         d="m 1272.72,4670.28 76.97,-167.44" /><path
         id="path190"
         style="fill:none;stroke:#000000;stroke-width:29.98800087;stroke-linecap:round;stroke-linejoin:miter;stroke-miterlimit:10;stroke-dasharray:none;stroke-opacity:1"
         d="M 845.895,4476.36 986.336,4260.94" /><path
         id="path192"
         style="fill:none;stroke:#000000;stroke-width:29.98800087;stroke-linecap:round;stroke-linejoin:miter;stroke-miterlimit:10;stroke-dasharray:none;stroke-opacity:1"
         d="m 1272.72,4670.28 c -76.47,-23.49 -150.44,-51.98 -222.41,-84.97" /><path
         id="path194"
         style="fill:none;stroke:#000000;stroke-width:29.98800087;stroke-linecap:round;stroke-linejoin:miter;stroke-miterlimit:10;stroke-dasharray:none;stroke-opacity:1"
         d="M 1050.31,4585.31 C 979.84,4553.32 911.867,4516.84 845.895,4476.36" /><path
         id="path196"
         style="fill:#6f4d4a;fill-opacity:1;fill-rule:nonzero;stroke:none"
         d="m 551.512,4709.26 c -15.992,-13.49 -23.992,-29.99 -23.992,-48.98 0,-18.99 8,-34.99 23.992,-48.48 16.492,-13.5 35.984,-20.49 58.976,-20.49 22.989,0 42.481,6.99 58.477,20.49 16.492,13.49 24.488,29.49 24.488,48.48 0,18.99 -7.996,35.49 -24.488,48.98 -15.996,12.99 -35.488,19.49 -58.477,19.49 -22.992,0 -42.484,-6.5 -58.976,-19.49" /><path
         id="path198"
         style="fill:none;stroke:#000000;stroke-width:29.98800087;stroke-linecap:round;stroke-linejoin:miter;stroke-miterlimit:10;stroke-dasharray:none;stroke-opacity:1"
         d="m 527.52,4660.28 c 0,-18.99 7.996,-34.99 23.992,-48.48 16.492,-13.5 35.984,-20.49 58.976,-20.49 22.989,0 42.481,6.99 58.477,20.49 16.492,13.49 24.488,29.49 24.488,48.48 0,18.99 -7.996,35.49 -24.488,48.98 -15.996,12.99 -35.488,19.49 -58.477,19.49 -22.992,0 -42.484,-6.5 -58.976,-19.49 -15.996,-13.49 -23.992,-29.99 -23.992,-48.98 z" /><path
         id="path200"
         style="fill:#6f4d4a;fill-opacity:1;fill-rule:nonzero;stroke:none"
         d="m 1268.22,4914.18 c 11.5,19.49 15.5,39.48 12,60.48 -3.5,20.48 -13.49,34.98 -29.99,44.48 -16.49,9.49 -34.48,10.99 -53.98,4 -19.99,-7.5 -35.48,-21 -46.98,-40.49 -11.49,-19.49 -14.99,-39.98 -11.49,-60.47 3.49,-20.5 13.49,-35.99 29.99,-45.48 16.49,-9.5 34.48,-10.5 53.97,-3 19.49,7.49 34.99,20.99 46.48,40.48" /><path
         id="path202"
         style="fill:none;stroke:#000000;stroke-width:29.98800087;stroke-linecap:round;stroke-linejoin:miter;stroke-miterlimit:10;stroke-dasharray:none;stroke-opacity:1"
         d="m 1280.22,4974.66 c -3.5,20.48 -13.49,34.98 -29.99,44.48 -16.49,9.49 -34.48,10.99 -53.98,4 -19.99,-7.5 -35.48,-21 -46.98,-40.49 -11.49,-19.49 -14.99,-39.98 -11.49,-60.47 3.49,-20.5 13.49,-35.99 29.99,-45.48 16.49,-9.5 34.48,-10.5 53.97,-3 19.49,7.49 34.99,20.99 46.48,40.48 11.5,19.49 15.5,39.48 12,60.48 z" /><path
         id="path204"
         style="fill:#a3555c;fill-opacity:1;fill-rule:nonzero;stroke:none"
         d="m 2762.63,5427.97 c -11,10.5 -23.99,15.99 -39.49,15.99 -15.49,0 -28.49,-5.49 -39.48,-15.99 -11,-10.99 -16.5,-23.99 -16.5,-39.48 0,-15.49 5.5,-28.99 16.5,-39.99 10.99,-10.99 23.99,-16.49 39.48,-16.49 15.5,0 28.49,5.5 39.49,16.49 10.99,11 16.49,24.5 16.49,39.99 0,15.49 -5.5,28.49 -16.49,39.48" /><path
         id="path206"
         style="fill:none;stroke:#000000;stroke-width:49.97999954;stroke-linecap:round;stroke-linejoin:round;stroke-miterlimit:10;stroke-dasharray:none;stroke-opacity:1"
         d="m 1672.06,475.953 258.9,124.953" /><path
         id="path208"
         style="fill:none;stroke:#000000;stroke-width:49.97999954;stroke-linecap:round;stroke-linejoin:round;stroke-miterlimit:10;stroke-dasharray:none;stroke-opacity:1"
         d="m 1494.63,638.391 271.89,354.855" /><path
         id="path210"
         style="fill:none;stroke:#000000;stroke-width:49.97999954;stroke-linecap:round;stroke-linejoin:round;stroke-miterlimit:10;stroke-dasharray:none;stroke-opacity:1"
         d="m 1272.22,800.824 81.47,223.406" /><path
         id="path212"
         style="fill:#f26d7d;fill-opacity:1;fill-rule:nonzero;stroke:none"
         d="M 1477.14,705.363 C 1338.2,816.816 1196.75,898.785 1052.31,950.766 l -29.99,-294.883 120.95,-96.461 280.39,-223.41 115.96,-92.465 302.38,84.965 c -112.46,146.441 -234.41,271.894 -364.86,376.851" /><path
         id="path214"
         style="fill:#9ddff9;fill-opacity:1;fill-rule:nonzero;stroke:none"
         d="m 1539.62,243.547 -115.96,92.465 c -44.48,-59.477 -92.46,-95.461 -144.44,-108.957 -52.48,-13.496 -101.46,-3.5 -146.94,30.988 -47.48,35.484 -67.98,83.465 -62.48,143.941 4.5,52.981 28.99,105.457 73.47,157.438 l -120.95,96.461 C 942.855,563.418 899.371,475.953 891.875,392.488 883.879,300.023 920.863,217.559 1002.33,145.586 1088.8,69.1172 1182.76,40.1289 1284.22,58.6211 c 101.46,18.4922 186.92,79.9689 255.4,184.9259" /><path
         id="path216"
         style="fill:#716f75;fill-opacity:1;fill-rule:nonzero;stroke:none"
         d="m 1143.27,559.422 c -44.48,-51.981 -68.97,-104.457 -73.47,-157.438 -5.5,-60.476 15,-108.457 62.48,-143.941 45.48,-34.488 94.46,-44.484 146.94,-30.988 51.98,13.496 99.96,49.48 144.44,108.957 l -280.39,223.41" /><path
         id="path218"
         style="fill:#86adc0;fill-opacity:1;fill-rule:nonzero;stroke:none"
         d="m 1502.63,280.531 -95.96,76.473 -231.41,184.426 -99.96,79.965 C 1009.83,544.926 974.344,472.457 967.844,403.484 c -6.496,-76.468 23.492,-144.441 90.966,-203.918 71.47,-62.976 148.94,-86.964 232.9,-71.472 83.97,14.992 154.44,65.972 210.92,152.437" /><path
         id="path220"
         style="fill:#c25e69;fill-opacity:1;fill-rule:nonzero;stroke:none"
         d="m 1474.64,291.027 252.4,77.469 C 1574.6,577.914 1380.68,738.848 1144.77,851.305 l -37.48,-244.903 367.35,-315.375" /><path
         id="path222"
         style="fill:#9ddff9;fill-opacity:1;fill-rule:nonzero;stroke:none"
         d="m 1008.83,321.016 c 11.49,11.496 17.49,24.992 17.49,40.984 0,15.992 -6,29.988 -17.49,41.484 -11.498,11.496 -24.99,16.993 -40.986,16.993 -15.992,0 -29.989,-5.497 -41.485,-16.993 -11.492,-11.496 -16.992,-25.492 -16.992,-41.484 0,-15.992 5.5,-29.488 16.992,-40.984 11.496,-11.496 25.493,-17.493 41.485,-17.493 15.996,0 29.488,5.997 40.986,17.493" /><path
         id="path224"
         style="fill:#685f63;fill-opacity:1;fill-rule:nonzero;stroke:none"
         d="m 1143.27,559.422 c -44.48,-51.981 -68.97,-104.457 -73.47,-157.438 -5.5,-60.476 15,-108.457 62.48,-143.941 45.48,-34.488 94.46,-44.484 146.94,-30.988 51.98,13.496 99.96,49.48 144.44,108.957 l -280.39,223.41" /><path
         id="path226"
         style="fill:none;stroke:#000000;stroke-width:29.98800087;stroke-linecap:round;stroke-linejoin:miter;stroke-miterlimit:10;stroke-dasharray:none;stroke-opacity:1"
         d="m 1539.62,243.547 -115.96,92.465" /><path
         id="path228"
         style="fill:none;stroke:#000000;stroke-width:29.98800087;stroke-linecap:round;stroke-linejoin:miter;stroke-miterlimit:10;stroke-dasharray:none;stroke-opacity:1"
         d="m 1143.27,559.422 -120.95,96.461" /><path
         id="path230"
         style="fill:none;stroke:#000000;stroke-width:29.98800087;stroke-linecap:round;stroke-linejoin:miter;stroke-miterlimit:10;stroke-dasharray:none;stroke-opacity:1"
         d="m 1143.27,559.422 c -44.48,-51.981 -68.97,-104.457 -73.47,-157.438 -5.5,-60.476 15,-108.457 62.48,-143.941 45.48,-34.488 94.46,-44.484 146.94,-30.988 51.98,13.496 99.96,49.48 144.44,108.957" /><path
         id="path232"
         style="fill:none;stroke:#000000;stroke-width:29.98800087;stroke-linecap:round;stroke-linejoin:miter;stroke-miterlimit:10;stroke-dasharray:none;stroke-opacity:1"
         d="m 1423.66,336.012 -280.39,223.41" /><path
         id="path234"
         style="fill:none;stroke:#000000;stroke-width:49.97999954;stroke-linecap:round;stroke-linejoin:miter;stroke-miterlimit:10;stroke-dasharray:none;stroke-opacity:1"
         d="M 1477.14,705.363 C 1607.59,600.406 1729.54,474.953 1842,328.512 L 1539.62,243.547 C 1471.14,138.59 1385.68,77.1133 1284.22,58.6211 1182.76,40.1289 1088.8,69.1172 1002.33,145.586 920.863,217.559 883.879,300.023 891.875,392.488 c 7.496,83.465 50.98,170.93 130.445,263.395 l 29.99,294.883 c 144.44,-51.981 285.89,-133.95 424.83,-245.403 z" /><path
         id="path236"
         style="fill:#716f75;fill-opacity:1;fill-rule:nonzero;stroke:none"
         d="m 1302.21,1140.69 c -5,-26.49 -0.5,-52.48 14,-76.97 14.49,-24.49 34.48,-41.49 59.97,-49.98 25.49,-8.5 48.98,-6.5 70.47,6 21.99,12.49 35.49,31.98 40.49,58.47 4.5,26.49 0,52.48 -14.5,76.97 -14.49,24.49 -33.98,41.49 -59.47,49.98 -25.49,9 -49.48,7 -71.47,-5.5 -21.5,-12.49 -34.99,-32.48 -39.49,-58.97" /><path
         id="path238"
         style="fill:#716f75;fill-opacity:1;fill-rule:nonzero;stroke:none"
         d="m 1727.04,1107.2 c -9.5,-24.49 -8,-48.98 5,-73.47 12.5,-24.99 32.49,-42.98 59.98,-53.976 27.48,-10.496 54.47,-11.496 80.96,-2 26.49,9.496 44.48,25.986 53.98,50.476 9.5,24.49 8,49.48 -5,73.97 -12.49,25 -32.98,42.99 -60.47,53.48 -27.49,11 -53.98,12 -80.47,2.5 -26.49,-9.49 -44.48,-26.49 -53.98,-50.98" /><path
         id="path240"
         style="fill:#716f75;fill-opacity:1;fill-rule:nonzero;stroke:none"
         d="m 1964.45,715.359 c -23.49,-7.496 -39.99,-20.492 -49.99,-39.984 -9.49,-18.992 -9.49,-38.484 0,-57.977 9.5,-19.992 25.5,-34.488 48.49,-43.984 22.49,-8.996 45.48,-9.996 68.97,-2.496 22.99,6.996 39.48,19.992 48.98,38.984 9.99,19.493 10.49,38.985 1,58.977 -9.5,19.492 -25.99,33.984 -48.48,42.98 -22.99,9.496 -45.98,10.496 -68.97,3.5" /><path
         id="path242"
         style="fill:none;stroke:#000000;stroke-width:49.97999954;stroke-linecap:round;stroke-linejoin:round;stroke-miterlimit:10;stroke-dasharray:none;stroke-opacity:1"
         d="m 1732.04,1033.73 c 12.5,-24.99 32.49,-42.98 59.98,-53.976 27.48,-10.496 54.47,-11.496 80.96,-2 26.49,9.496 44.48,25.986 53.98,50.476 9.5,24.49 8,49.48 -5,73.97 -12.49,25 -32.98,42.99 -60.47,53.48 -27.49,11 -53.98,12 -80.47,2.5 -26.49,-9.5 -44.48,-26.49 -53.98,-50.98 -9.5,-24.49 -8,-48.98 5,-73.47 z" /><path
         id="path244"
         style="fill:none;stroke:#000000;stroke-width:49.97999954;stroke-linecap:round;stroke-linejoin:round;stroke-miterlimit:10;stroke-dasharray:none;stroke-opacity:1"
         d="m 1914.46,675.375 c -9.49,-18.992 -9.49,-38.484 0,-57.977 9.5,-19.992 25.5,-34.488 48.49,-43.984 22.49,-8.996 45.48,-9.996 68.97,-2.496 22.99,6.996 39.48,19.992 48.98,38.984 9.99,19.493 10.49,38.985 1,58.977 -9.5,19.492 -25.99,33.984 -48.48,42.98 -22.99,9.496 -45.98,10.496 -68.97,3.5 -23.49,-7.496 -39.99,-20.492 -49.99,-39.984 z" /><path
         id="path246"
         style="fill:none;stroke:#000000;stroke-width:49.97999954;stroke-linecap:round;stroke-linejoin:round;stroke-miterlimit:10;stroke-dasharray:none;stroke-opacity:1"
         d="m 1316.21,1063.72 c 14.49,-24.49 34.48,-41.49 59.97,-49.98 25.49,-8.5 48.98,-6.5 70.47,6 21.99,12.49 35.49,31.98 40.49,58.47 4.5,26.49 0,52.48 -14.5,76.97 -14.49,24.49 -33.98,41.49 -59.47,49.98 -25.49,9 -49.48,7 -71.47,-5.5 -21.5,-12.49 -34.99,-32.48 -39.49,-58.97 -5,-26.49 -0.5,-52.48 14,-76.97 z" /><path
         id="path248"
         style="fill:#c6996d;fill-opacity:1;fill-rule:nonzero;stroke:none"
         d="m 2885.08,4334.41 c -124.45,20.49 -260.4,4.5 -408.34,-48.48 -147.44,-52.98 -262.89,-126.95 -345.86,-221.91 -83.47,-95.46 -109.96,-183.93 -80.47,-266.39 29.49,-82.47 106.96,-133.95 231.41,-154.44 124.45,-20.49 260.39,-4 407.84,48.98 147.94,52.97 263.39,126.95 346.36,221.41 83.46,95.46 109.95,183.92 80.46,266.39 -29.48,82.47 -106.95,133.95 -231.4,154.44" /><path
         id="path250"
         style="fill:#8f6c5e;fill-opacity:1;fill-rule:nonzero;stroke:none"
         d="m 2631.68,3761.64 c 131.45,39.49 236.41,96.46 315.37,169.93 78.47,73.47 107.96,142.95 88.47,207.42 -19.5,64.97 -82.47,106.46 -188.43,123.95 -106.45,17.49 -225.41,6.5 -356.86,-32.99 -131.44,-39.48 -236.9,-96.46 -315.37,-169.93 -78.47,-73.47 -107.95,-142.44 -88.46,-207.42 19.49,-64.47 82.46,-105.96 188.42,-123.95 106.46,-17.49 225.41,-6.49 356.86,32.99" /><path
         id="path252"
         style="fill:#000000;fill-opacity:1;fill-rule:nonzero;stroke:none"
         d="m 6398.67,2960.46 -6.49,6.5 c -219.92,242.4 -452.82,445.32 -699.23,609.25 l -31.49,21.5 -15.49,-82.47 c -274.39,127.95 -548.28,237.4 -822.67,328.87 l -1,0 c -1.5,0.5 -3.5,1 -5,1 -0.5,0.5 -0.5,0.5 -1,0.5 -455.31,106.45 -910.13,173.43 -1365.45,199.92 l -25.99,1.5 -10.49,-511.3 c 0,-1.5 0,-2.5 0.5,-4 l 66.47,-481.3 157.94,-97.97 -198.92,2.5 -496.31,1038.09 -615.25,-100.46 -81.47,-372.35 -186.42,312.37 c -3,5.5 -7.5,9 -13,11 -5.5,2 -11.49,2 -16.99,0 -197.42,-72.47 -392.34,-158.44 -584.77,-258.9 -0.5,0 -0.5,0 -1,-0.5 l -0.5,0 c -147.44,-76.97 -293.38,-161.93 -437.82,-254.9 l -1,-0.5 -0.5,-0.5 C 749.934,3164.38 499.031,2974.45 253.129,2759.04 l -7.496,-6.5 -1,-10.49 c -28.488,-398.34 27.488,-796.68 166.933,-1195.02 1.5,-3.5 3.5,-7 6.997,-10 3,-2.5 6.5,-4.5 10.496,-6 l 629.251,-158.43 239.9,266.39 c 2.5,3.5 4.5,7 6,10.99 1,4 1,8 0,12 l -55.98,215.91 367.36,-223.91 367.85,94.97 1,0.5 356.36,92.46 437.32,68.97 c 5,1 9.5,3 12.99,6.5 3.5,3.5 6,7.5 7.5,12 l 137.95,534.28 135.94,-442.82 356.86,87.96 0,-46.98 994.1,-50.98 763.7,-145.94 c 1.5,-0.5 3.5,-0.5 4.99,-1 l 291.89,-55.48 82.46,97.96 39.99,-417.83 283.89,20.99 c 1.5,0 3.5,0.5 5.49,1 l 375.85,112.46 -100.46,637.74 163.44,130.45 c 4,3.5 7,7.49 8.5,12.99 44.98,175.43 63.47,357.86 55.47,547.28 l 0,9 z m -101.96,-535.78 -14.49,-11.5 -119.95,-95.46 -27.99,173.43 -54.98,30.49 40.48,-252.9 0,-2 95.97,-608.26 -314.38,-93.96 -17.49,-5.5 -12.5,-1 -219.41,-15.99 -40.49,417.83 206.92,244.4 27.49,32.49 2,2.5 c 1,1.5 2,2.5 3,4 l -47.48,20.99 -13.5,-16.49 -223.41,-263.9 -0.5,-0.5 -101.46,-120.45 -230.4,43.98 229.91,402.34 3.49,6.5 c 1,2.5 2,4.99 2.5,7.49 l 0,0.5 3,14.5 68.48,360.36 c 0.5,1 0.5,1.99 1,2.99 0.49,2 0.49,4 0.49,6 l 145.95,766.69 0,0.5 c 0,0.5 0,1 0.49,1.5 l 7,37.49 c 229.41,-156.44 446.82,-347.36 652.74,-573.27 6.5,-173.43 -9.99,-340.86 -49.48,-502.8 -1,-4.5 -2,-8.5 -3,-12.99 z m -4267.79,1364.95 20.49,-34.99 182.43,-305.87 -175.43,-807.18 -21.49,-99.96 -60.48,-276.89 -0.5,-2.5 c -0.5,-3.5 -0.5,-7.5 0.5,-11.49 0,-0.5 0,-1.5 0.5,-2 1,-2.5 2.5,-5.5 4.5,-8 l 4.5,-5 306.38,-355.36 -306.88,-79.46 -363.36,306.37 -16.49,14 0.5,-10 c 0.5,-6.5 -1.5,-12.5 -6,-17.99 -4.5,-5.5 -9.99,-8.5 -16.99,-9 -6.5,-0.5 -12.49,1.5 -17.99,6 l 2.5,-2.5 358.85,-302.38 -300.88,-77.97 -402.34,244.9 c -0.5,0.5 -0.5,0.5 -0.5,0.5 l -0.5,0 -13.49,8.5 -24.49,15 c -0.5,2.49 -1.5,4.99 -2,7.49 -8,37.49 -15.49,74.97 -22.99,111.46 l -0.5,0.99 c 0,0.5 0,1 -0.5,1.5 0,0.5 0,1 0,1 -27.99,138.45 -50.48,275.4 -67.97,410.84 -34.49,265.9 -48.98,527.29 -43.99,784.19 128.45,82.46 257.9,158.43 389.35,227.9 l 17.99,-434.32 49.98,18.99 -18.99,440.83 c 177.43,91.96 356.86,171.93 539.28,239.4 2,1 4.5,2 7,3 z M 294.113,2728.55 c 228.91,199.92 462.317,377.35 699.723,532.79 -3.5,-246.9 11.494,-497.8 43.984,-752.7 0.5,-1.5 0.5,-3.5 1,-5.5 0.5,-3.5 1,-7 1.5,-10.99 0.5,-5 1,-10.5 2,-16 14.99,-112.45 33.48,-225.4 55.47,-338.86 l -332.364,170.43 -27.988,14.49 2,-1 c 2.496,-1.99 4.996,-4.49 6.996,-7.49 1.5,-2.5 2.5,-5.5 3,-8.5 0.996,-5.49 0.5,-10.99 -2,-15.99 -0.5,-1 -1.5,-2 -2,-3 -4,-5.5 -9.496,-8.5 -15.993,-10 l -0.5,0 c -6.5,-1 -12.496,0.5 -17.992,4 l -2,1.5 c 1.5,-1.5 2.996,-2.5 4.496,-3.5 l 32.989,-16.99 363.856,-186.92 c 8,-39.49 16.49,-78.97 24.99,-118.96 0.5,-3.5 2,-6.5 4.5,-8.99 1.49,-2.5 3.99,-5 6.99,-7 l 39.99,-23.99 65.47,-252.9 -210.91,-233.91 -558.781,140.45 -28.488,7.5 c -1,2.49 -2,5.49 -2.5,7.99 -130.449,381.35 -182.926,762.7 -157.438,1144.04 z m 2440.027,366.86 c -0.5,0 -0.5,0 -0.5,0.5 l -23.49,-73.97 195.92,-477.31 -151.94,-586.77 -7.5,-1 -401.34,-63.47 -308.87,357.86 -11,12.49 0,0.5 3.5,15.99 253.9,1167.54 0,1 87.47,399.84 545.28,88.96 484.3,-1013.09 18.99,-334.87 2,-30.49 8.5,-149.94 0,-248.9 -322.87,-79.47 -112.95,371.35 -4.5,14.5 -0.5,1 c 0,0.5 0,1 -0.5,1.5 l -4,11.49 -27.99,73.97 -0.5,0.5 c 0,0.5 0,0.5 0,1 l -0.5,0.5 -220.91,538.79 z m 737.2,392.34 -6.5,44.98 -0.5,4 9.5,457.32 c 438.33,-26.99 876.15,-91.47 1313.98,-192.92 l 49.48,-14.5 c 266.39,-89.97 532.78,-197.42 799.18,-321.87 l -75.97,-399.84 -9.5,-49.98 -52.48,-275.89 -9.49,-49.48 -64.98,-341.86 -2,-10.5 -10.49,-17.99 -229.91,-402.34 -711.72,135.44 269.4,342.87 c 3,3.99 4.49,8.49 4.99,13.49 l 2.5,36.49 2,30.49 28.99,430.32 c 0.5,3.5 0,7 -1.5,10.5 -1.5,3.5 -3,6 -5.5,8.5 l -1.5,1.99 -129.44,134.45 153.93,324.37 -28.99,7 -0.5,0 -146.44,-308.38 -23.49,-47.48 132.95,-138.45 -31.99,-472.8 -0.5,-5.5 -18.99,-24.49 -262.9,-334.37 -933.62,47.98 0,301.38 c 0,0.5 0,1 0,1.5 l -0.5,13.5 -27.99,479.3 693.72,-9.49 -51.98,50.47 -356.35,5 -208.42,129.45 -56.48,407.34" /><path
         id="path254"
         style="fill:#ffffff;fill-opacity:1;fill-rule:nonzero;stroke:none"
         d="m 5845.89,2236.75 -27.49,-32.49 52.98,-646.24 12.5,1 17.49,5.5 -55.48,672.23" /><path
         id="path256"
         style="fill:#543e3c;fill-opacity:1;fill-rule:nonzero;stroke:none"
         d="m 5871.38,1558.02 -52.98,646.24 -206.92,-244.4 40.49,-417.83 219.41,15.99" /><path
         id="path258"
         style="fill:#76747a;fill-opacity:1;fill-rule:nonzero;stroke:none"
         d="m 5789.91,2247.75 -325.86,61.47 -229.91,-402.34 230.41,-43.98 101.45,120.45 0.5,0.5 223.41,263.9" /><path
         id="path260"
         style="fill:#76747a;fill-opacity:1;fill-rule:nonzero;stroke:none"
         d="m 6134.28,2491.15 27.99,-173.43 119.95,95.46 -147.94,77.97" /><path
         id="path262"
         style="fill:#ffffff;fill-opacity:1;fill-rule:nonzero;stroke:none"
         d="m 6282.22,2413.18 14.49,11.5 c 1,4.49 2,8.49 3,12.99 l -188.92,100.96 -37.99,18.99 6.5,-35.98 54.98,-30.49 147.94,-77.97" /><path
         id="path264"
         style="fill:#ffffff;fill-opacity:1;fill-rule:nonzero;stroke:none"
         d="m 5470.04,2323.21 c -0.5,-2.5 -1.5,-4.99 -2.5,-7.49 l -3.49,-6.5 325.86,-61.47 13.5,16.49 -0.5,11.49 -329.87,62.48 -3,-14.5 0,-0.5" /><path
         id="path266"
         style="fill:#543e3c;fill-opacity:1;fill-rule:nonzero;stroke:none"
         d="m 6117.79,2766.54 0,59.48 -345.87,232.4 30.99,-782.69 0.5,-11.49 47.48,-20.99 3,13.49 c 0,0.5 0,0.5 0,1 l -27.99,704.22 291.89,-195.42" /><path
         id="path268"
         style="fill:#9ddff9;fill-opacity:1;fill-rule:nonzero;stroke:none"
         d="m 6117.79,2826.02 0,-59.48 -291.89,195.42 27.99,-704.22 c 0,-0.5 0,-0.5 0,-1 l -3,-13.49 c -1,-1.5 -2,-2.5 -3,-4 l -2,-2.5 55.48,-672.23 314.38,93.96 -95.97,608.26 0,2 -40.48,252.9 -6.5,35.98 37.99,-18.99 188.92,-100.96 c 39.49,161.94 55.98,329.37 49.48,502.8 -205.92,225.91 -423.33,416.83 -652.74,573.27 l -6.99,-37.49 c -0.5,-0.5 -0.5,-1 -0.5,-1.5 l 0,-0.5 -145.94,-766.69 c 0,-2 0,-4 -0.5,-6 -0.5,-1 -0.5,-1.99 -1,-2.99 l -68.48,-360.36 329.87,-62.48 -30.99,782.69 345.87,-232.4" /><path
         id="path270"
         style="fill:#d8f5fc;fill-opacity:1;fill-rule:nonzero;stroke:none"
         d="m 2049.41,3754.64 -20.49,34.99 c -2.5,-1 -5,-2 -7,-3 -31.49,-391.34 -26.99,-806.18 13,-1245 l 21.49,99.96 c -30.99,390.34 -33.49,761.2 -7,1113.05" /><path
         id="path272"
         style="fill:#543e3c;fill-opacity:1;fill-rule:nonzero;stroke:none"
         d="m 2231.84,3448.77 -182.43,305.87 c -26.49,-351.85 -23.99,-722.71 7,-1113.05 l 175.43,807.18" /><path
         id="path274"
         style="fill:#76747a;fill-opacity:1;fill-rule:nonzero;stroke:none"
         d="m 2290.32,1880.39 -306.38,355.36 -363.86,-128.45 363.36,-306.37 306.88,79.46" /><path
         id="path276"
         style="fill:#ffffff;fill-opacity:1;fill-rule:nonzero;stroke:none"
         d="m 1182.26,1976.36 24.49,-15 358.86,126.45 -2.5,2.5 c -3.5,3 -6,6.49 -7.5,10.49 -0.5,2 -1,4 -1.5,6 l 0,0.5 -0.5,8.5 -373.35,-131.95 c 0.5,-2.5 1.5,-5 2,-7.49" /><path
         id="path278"
         style="fill:#76747a;fill-opacity:1;fill-rule:nonzero;stroke:none"
         d="m 1220.74,1952.86 c 0,0 0,0 0.5,-0.5 l 402.34,-244.9 300.88,77.97 -358.85,302.38 -358.86,-126.45 13.49,-8.5 0.5,0" /><path
         id="path280"
         style="fill:#543e3c;fill-opacity:1;fill-rule:nonzero;stroke:none"
         d="m 1553.61,2707.56 -48.98,-18.99 48.98,-572.77 0.5,-8.5 0,-0.5 c 0.5,-2 1,-4 1.5,-6 1.5,-4 4,-7.49 7.5,-10.49 5.5,-4.5 11.49,-6.5 17.99,-6 7,0.5 12.49,3.5 16.99,9 4.5,5.49 6.5,11.49 6,17.99 l -0.5,10 -1,11.99 -48.98,574.27" /><path
         id="path282"
         style="fill:#ffffff;fill-opacity:1;fill-rule:nonzero;stroke:none"
         d="m 1974.44,2250.75 c -1,3.99 -1,7.99 -0.5,11.49 l 0.5,2.5 -371.85,-131.45 1,-11.99 16.49,-14 363.86,128.45 -4.5,5 c -2,2.5 -3.5,5.5 -4.5,8 -0.5,0.5 -0.5,1.5 -0.5,2" /><path
         id="path284"
         style="fill:#9ddff9;fill-opacity:1;fill-rule:nonzero;stroke:none"
         d="m 1501.63,3106.4 -49.98,-18.99 -17.99,434.32 c -131.45,-69.46 -260.9,-145.44 -389.35,-227.9 -4.99,-256.9 9.5,-518.29 43.99,-784.19 17.49,-135.44 39.98,-272.39 67.97,-410.84 0,0 0,-0.5 0,-1 0.5,-0.5 0.5,-1 0.5,-1.5 l 0.5,-0.99 c 7.5,-36.49 14.99,-73.97 22.99,-111.46 l 373.35,131.95 -48.98,572.77 48.98,18.99 48.98,-574.27 371.85,131.45 60.48,276.89 c -39.99,438.82 -44.49,853.66 -13,1245 -182.42,-67.47 -361.85,-147.44 -539.28,-239.4 l 18.99,-440.83" /><path
         id="path286"
         style="fill:#ffffff;fill-opacity:1;fill-rule:nonzero;stroke:none"
         d="m 1042.32,2476.16 c -1,5.49 -1.5,10.99 -2,15.99 -0.5,3.99 -1,7.49 -1.5,10.99 -0.5,2 -0.5,4 -1,5.5 l -302.882,-184.43 2.5,-2 27.988,-14.49 276.894,168.44" /><path
         id="path288"
         style="fill:#76747a;fill-opacity:1;fill-rule:nonzero;stroke:none"
         d="m 1097.79,2137.29 c -21.99,113.46 -40.48,226.41 -55.47,338.87 L 765.426,2307.72 1097.79,2137.29" /><path
         id="path290"
         style="fill:#9ddff9;fill-opacity:1;fill-rule:nonzero;stroke:none"
         d="M 993.836,3261.34 C 756.43,3105.9 523.023,2928.47 294.113,2728.55 268.625,2347.21 321.102,1965.86 451.551,1584.51 l 337.367,228.41 -75.473,465.31 c -1.5,1 -2.996,2 -4.496,3.5 l -258.398,179.43 290.883,190.43 5.5,-54.98 -206.918,-136.95 194.922,-135.45 302.882,184.43 c -32.49,254.9 -47.484,505.8 -43.984,752.7" /><path
         id="path292"
         style="fill:#543e3c;fill-opacity:1;fill-rule:nonzero;stroke:none"
         d="m 746.434,2313.72 c -2,3 -4.5,5.5 -6.996,7.49 l -2,1 -2.5,2 -194.922,135.45 206.918,136.95 -5.5,54.98 -290.883,-190.43 258.398,-179.43 2,-1.5 c 5.496,-3.5 11.492,-5 17.992,-4 l 0.5,0 c 6.497,1.5 11.993,4.5 15.993,10 0.5,1 1.5,2 2,3 2.5,5 2.996,10.5 2,15.99 -0.5,3 -1.5,6 -3,8.5" /><path
         id="path294"
         style="fill:#ffffff;fill-opacity:1;fill-rule:nonzero;stroke:none"
         d="m 746.434,2261.24 -32.989,16.99 75.473,-465.31 -337.367,-228.41 c 0.5,-2.5 1.5,-5.5 2.5,-7.99 l 28.488,-7.5 324.871,220.41 5.996,4 c 2.5,1.5 4,4 5.496,6.5 0,0.5 0,1 0.5,1.5 0.5,2.49 1,4.49 0.5,6.99 l -1.496,9 -71.972,443.82" /><path
         id="path296"
         style="fill:#543e3c;fill-opacity:1;fill-rule:nonzero;stroke:none"
         d="m 1135.28,1955.36 c -8.5,39.99 -16.99,79.47 -24.99,118.96 l -363.856,186.92 71.972,-443.82 433.824,-154.94 -65.47,252.9 -39.99,23.99 c -3,2 -5.5,4.5 -6.99,7 -2.5,2.5 -4,5.49 -4.5,8.99" /><path
         id="path298"
         style="fill:#76747a;fill-opacity:1;fill-rule:nonzero;stroke:none"
         d="m 1041.32,1428.57 210.91,233.91 -444.82,126.95 -324.871,-220.41 558.781,-140.45" /><path
         id="path300"
         style="fill:#93cae0;fill-opacity:1;fill-rule:nonzero;stroke:none"
         d="m 818.406,1817.42 1.496,-9 c 0.5,-2.5 0,-4.5 -0.5,-6.99 -0.5,-0.5 -0.5,-1 -0.5,-1.5 -1.496,-2.5 -2.996,-5 -5.496,-6.5 l -5.996,-4 444.82,-126.95 -433.824,154.94" /><path
         id="path302"
         style="fill:#ffffff;fill-opacity:1;fill-rule:nonzero;stroke:none"
         d="m 3420.86,2559.12 -2,30.49 -434.82,-108.96 4,-11.49 c 0.5,-0.5 0.5,-1 0.5,-1.5 l 0.5,-1 4.5,-14.5 427.32,106.96" /><path
         id="path304"
         style="fill:#76747a;fill-opacity:1;fill-rule:nonzero;stroke:none"
         d="m 3429.36,2409.18 -8.5,149.94 -427.32,-106.96 112.95,-371.35 322.87,79.47 0,248.9" /><path
         id="path306"
         style="fill:#000000;fill-opacity:1;fill-rule:nonzero;stroke:none"
         d="m 2686.66,3077.91 0.5,0 -1,2.5 c 0,-0.5 0,-1.5 0.5,-2.5" /><path
         id="path308"
         style="fill:#9ddff9;fill-opacity:1;fill-rule:nonzero;stroke:none"
         d="m 2549.21,2391.69 3.5,2 -2,3.5 -1.5,-5.5" /><path
         id="path310"
         style="fill:#ffffff;fill-opacity:1;fill-rule:nonzero;stroke:none"
         d="m 2710.15,3021.94 -19.49,46.48 -167.94,-660.74 -493.8,-127.45 -3.5,-15.99 0,-0.5 11,-12.49 490.8,126.95 11.49,2.99 c 1,0.5 2,0.5 3,1 1.5,1 2.5,2 3.5,3 2,2 3.5,4 4,6.5 l 1.5,5.5 159.44,624.75" /><path
         id="path312"
         style="fill:#93cae0;fill-opacity:1;fill-rule:nonzero;stroke:none"
         d="m 2552.71,2393.69 -3.5,-2 c -0.5,-2.5 -2,-4.5 -4,-6.5 -1,-1 -2,-2 -3.5,-3 -1,-0.5 -2,-0.5 -3,-1 l -11.49,-3 219.41,-421.33 7.5,1 -201.42,435.83" /><path
         id="path314"
         style="fill:#543e3c;fill-opacity:1;fill-rule:nonzero;stroke:none"
         d="m 2550.71,2397.19 2,-3.5 201.42,-435.83 151.94,586.77 -195.92,477.31 -159.44,-624.75" /><path
         id="path316"
         style="fill:#76747a;fill-opacity:1;fill-rule:nonzero;stroke:none"
         d="m 2527.22,2378.2 -490.8,-126.95 308.87,-357.86 401.34,63.47 -219.41,421.34" /><path
         id="path318"
         style="fill:#543e3c;fill-opacity:1;fill-rule:nonzero;stroke:none"
         d="m 3044.52,3290.83 -18,46.98 -399.34,-78.47 58.98,-178.93 1,-2.5 -0.5,0 c 0.5,-0.5 0.5,-1 1,-1.5 l 3,-7.99 19.49,-46.48 23.49,73.97 c 0,-0.5 0,-0.5 0.5,-0.5 -0.5,0.5 -0.5,0.5 -0.5,0.5 l -41.48,125.45 352.36,69.47" /><path
         id="path320"
         style="fill:#9ddff9;fill-opacity:1;fill-rule:nonzero;stroke:none"
         d="m 3026.52,3337.81 17.99,-46.98 -352.35,-69.47 41.48,-125.45 c 0,0 0,0 0.5,-0.5 l 220.91,-538.79 0.5,-0.5 c 0,-0.5 0,-0.5 0,-1 l 0.5,-0.5 27.99,-73.97 434.82,108.96 -18.99,334.87 -484.3,1013.09 -545.28,-88.96 -87.47,-399.84 0,-1 -253.9,-1167.54 493.8,127.45 167.94,660.74 -3,7.99 c -0.5,0.5 -0.5,1 -1,1.5 -0.5,1 -0.5,2 -0.5,2.5 l -58.98,178.93 399.34,78.47" /><path
         id="path322"
         style="fill:#ffffff;fill-opacity:1;fill-rule:nonzero;stroke:none"
         d="m 5411.57,2319.22 10.49,17.99 2,10.5 -675.23,127.94 -2,-30.48 664.74,-125.95" /><path
         id="path324"
         style="fill:#76747a;fill-opacity:1;fill-rule:nonzero;stroke:none"
         d="m 5181.66,1916.88 229.91,402.34 -664.74,125.95 -2.5,-36.49 c -0.5,-5 -1.99,-9.5 -4.99,-13.49 l -269.4,-342.87 711.72,-135.44" /><path
         id="path326"
         style="fill:#ffffff;fill-opacity:1;fill-rule:nonzero;stroke:none"
         d="m 4694.85,2420.18 0.5,5.5 -1216.51,0 0.5,-13.5 c 0,-0.5 0,-1 0,-1.5 l 0,-14.99 1196.52,0 18.99,24.49" /><path
         id="path328"
         style="fill:#76747a;fill-opacity:1;fill-rule:nonzero;stroke:none"
         d="m 4412.96,2061.32 262.9,334.37 -1196.52,0 0,-286.39 933.62,-47.98" /><path
         id="path330"
         style="fill:#543e3c;fill-opacity:1;fill-rule:nonzero;stroke:none"
         d="m 4233.54,3484.75 0.5,0 -0.5,0" /><path
         id="path332"
         style="fill:#ffffff;fill-opacity:1;fill-rule:nonzero;stroke:none"
         d="m 4157.07,3526.73 0,-33.98 76.47,-8 530.78,-91.46 c -2.49,4 -3.49,8.5 -2.99,12.99 l 1.49,17.49 -574.77,98.96 -30.98,4" /><path
         id="path334"
         style="fill:#543e3c;fill-opacity:1;fill-rule:nonzero;stroke:none"
         d="m 4234.04,3484.75 -0.5,0 -76.47,8 437.32,-455.82 23.49,47.48 -383.84,400.34" /><path
         id="path336"
         style="fill:#76747a;fill-opacity:1;fill-rule:nonzero;stroke:none"
         d="m 3527.82,3080.41 208.42,-129.45 356.35,-5 -621.25,541.79 56.48,-407.34" /><path
         id="path338"
         style="fill:#9ddff9;fill-opacity:1;fill-rule:nonzero;stroke:none"
         d="m 4157.07,3492.75 0,33.98 30.98,-4 574.77,-98.96 25,377.36 c -437.83,101.45 -875.65,165.93 -1313.98,192.92 l -9.5,-457.32 0.5,-4 680.23,-592.76 -0.5,-44.49 -693.72,9.5 27.99,-479.3 1216.51,0 31.99,472.8 -132.95,138.45 -437.32,455.82" /><path
         id="path340"
         style="fill:#ffffff;fill-opacity:1;fill-rule:nonzero;stroke:none"
         d="m 3464.84,3532.73 6.5,-44.98 621.25,-541.79 51.98,-50.47 0.5,44.48 -680.23,592.76" /><path
         id="path342"
         style="fill:#543e3c;fill-opacity:1;fill-rule:nonzero;stroke:none"
         d="m 5159.67,3224.36 0,-52.48 391.34,-156.94 9.5,49.98 -400.84,159.44" /><path
         id="path344"
         style="fill:#543e3c;fill-opacity:1;fill-rule:nonzero;stroke:none"
         d="m 5140.18,2834.51 0,-52.48 348.86,-92.46 9.49,49.48 -358.35,95.46" /><path
         id="path346"
         style="fill:#9ddff9;fill-opacity:1;fill-rule:nonzero;stroke:none"
         d="m 4769.32,2926.97 1.5,-1.99 c 2.5,-2.5 4,-5 5.5,-8.5 1.5,-3.5 2,-7 1.5,-10.5 l -28.99,-430.32 675.23,-127.95 64.98,341.86 -348.86,92.46 0,52.48 358.35,-95.46 52.48,275.89 -391.34,156.94 0,52.48 400.84,-159.44 75.97,399.84 c -266.4,124.45 -532.79,231.9 -799.18,321.87 l -36.99,-402.84 -30.99,-456.82" /><path
         id="path348"
         style="fill:#76747a;fill-opacity:1;fill-rule:nonzero;stroke:none"
         d="m 4764.32,3392.79 0,0.5 -530.78,91.46 0.5,0 383.84,-400.34 146.44,308.38" /><path
         id="path350"
         style="fill:#543e3c;fill-opacity:1;fill-rule:nonzero;stroke:none"
         d="m 4837.3,3786.63 -49.48,14.5 -24.99,-377.36 -1.5,-17.49 c -0.5,-4.49 0.5,-8.99 2.99,-12.99 l 0,-0.5 0.5,0 28.99,-7 -153.93,-324.37 129.44,-134.45 30.99,456.82 36.99,402.84" /><path
         id="path352"
         style="fill:none;stroke:#ff0000;stroke-width:0.4998;stroke-linecap:square;stroke-linejoin:miter;stroke-miterlimit:10;stroke-dasharray:none;stroke-opacity:1"
         d="m 4233.54,3484.75 0.5,0" /><path
         id="path354"
         style="fill:#8ebed3;fill-opacity:1;fill-rule:nonzero;stroke:none"
         d="m 3658.27,3930.07 c -45.48,4 -90.47,7.5 -135.45,10.5 l -8,-385.35 88.47,-76.97 253.4,431.83 c -66.48,7.5 -132.45,14.49 -198.42,19.99" /><path
         id="path356"
         style="fill:#8ebed3;fill-opacity:1;fill-rule:nonzero;stroke:none"
         d="m 3220.44,3183.37 -275.39,-470.31 56.48,-137.45 c 0.5,-1 0.5,-1.99 1,-2.99 l 12.49,-32.49 44.99,11 254.9,434.82 -94.47,197.42" /><path
         id="path358"
         style="fill:#8ebed3;fill-opacity:1;fill-rule:nonzero;stroke:none"
         d="m 4060.11,3079.91 99.46,-86.46 c 7.49,-2.5 14.49,-6.5 20.49,-13 4.5,-4.5 7.99,-8.99 10.49,-13.99 8,-8.5 12.5,-19 13.5,-31.49 1,-12.49 -2,-23.49 -9.5,-32.99 l 0,-6.99 c -0.5,-13.5 -5.5,-25.49 -14.99,-35.49 -10,-9.5 -21.99,-14.49 -35.99,-13.99 l -219.41,2.99 -218.91,-372.84 420.33,0 355.86,606.75 -260.9,271.89 -160.43,-274.39" /><path
         id="path360"
         style="fill:#8ebed3;fill-opacity:1;fill-rule:nonzero;stroke:none"
         d="m 4735.34,3761.64 c -81.97,18.49 -163.94,35.99 -245.41,51.98 l -155.43,-265.39 381.34,-65.98 0.5,0 0,1.5 19,277.89" /><path
         id="path362"
         style="fill:#8ebed3;fill-opacity:1;fill-rule:nonzero;stroke:none"
         d="m 497.031,2834.51 c -51.476,-41.98 -102.957,-85.46 -154.437,-129.95 -2.496,-47.48 -3.996,-94.46 -4.496,-141.44 l 158.933,271.39" /><path
         id="path364"
         style="fill:#8ebed3;fill-opacity:1;fill-rule:nonzero;stroke:none"
         d="m 2332.3,3441.27 c -0.5,-1.5 -0.5,-2.5 -0.5,-4 l -128.95,-591.76 600.26,1023.09 -391.34,-63.98 -79.47,-363.35" /><path
         id="path366"
         style="fill:#8ebed3;fill-opacity:1;fill-rule:nonzero;stroke:none"
         d="m 1931.96,2302.72 52.48,241.91 c -18.49,201.42 -28.99,398.34 -31.99,589.76 l -336.36,-573.77 30.48,-358.85 285.39,100.95" /><path
         id="path368"
         style="fill:#8ebed3;fill-opacity:1;fill-rule:nonzero;stroke:none"
         d="m 1205.25,2108.8 c -0.5,0.5 -0.5,1 -0.5,1.5 0,0.5 0,0.5 0,1 -0.5,0.5 -0.5,0.5 -0.5,0.5 -0.5,1.5 -0.5,2.5 -1,3.5 l 2,-6.5" /><path
         id="path370"
         style="fill:#8ebed3;fill-opacity:1;fill-rule:nonzero;stroke:none"
         d="m 1484.64,2336.71 -141.94,-241.9 157.93,55.48 -15.99,186.42" /><path
         id="path372"
         style="fill:#8ebed3;fill-opacity:1;fill-rule:nonzero;stroke:none"
         d="m 442.055,1784.93 c 10.996,-40.48 22.992,-80.97 35.984,-121.95 l 256.399,173.93 -56.477,350.86 -235.906,-402.84" /><path
         id="path374"
         style="fill:#8ebed3;fill-opacity:1;fill-rule:nonzero;stroke:none"
         d="m 823.902,2436.67 160.438,97.96 c -6,49.48 -11.496,98.96 -15.996,148.44 l -144.442,-246.4" /><path
         id="path376"
         style="fill:#8ebed3;fill-opacity:1;fill-rule:nonzero;stroke:none"
         d="m 4444.95,2475.66 203.92,0 25.99,392.34 -229.91,-392.34" /><path
         id="path378"
         style="fill:#8ebed3;fill-opacity:1;fill-rule:nonzero;stroke:none"
         d="m 5908.37,3027.43 103.46,176.43 c -91.47,81.47 -185.43,156.44 -280.89,224.91 l -137.95,-725.71 c -0.5,-4.49 -0.99,-9.49 -1.99,-13.99 -0.5,-0.5 -0.5,-0.5 -0.5,-1 -0.5,-1 -0.5,-2 -1,-3.5 l -56.48,-297.38 201.92,344.36 -13,324.87 c -0.5,13 3,24.49 11.5,33.99 8.49,10 18.99,15.99 31.49,17.49 12.49,2 24.48,-0.5 34.98,-7.99 l 108.46,-72.48" /><path
         id="path380"
         style="fill:#8ebed3;fill-opacity:1;fill-rule:nonzero;stroke:none"
         d="m 5738.44,3467.26 c 0,0.5 0,1.5 0.49,2 l -0.49,-2.5 0,0.5" /><path
         id="path382"
         style="fill:#8ebed3;fill-opacity:1;fill-rule:nonzero;stroke:none"
         d="m 6179.26,3045.93 -84.47,-143.95 50.98,-34.48 c 11.5,-7.5 18.5,-18 21,-31.49 2.49,-13.49 0,-26.49 -7.5,-37.98 l -27.99,-41.49 c -7.5,-11.49 -17.99,-18.49 -31.49,-20.99 -13.49,-2.5 -26.49,0 -37.99,7.5 l -42.98,29.49 -126.44,-215.92 c 3.49,-219.91 4.99,-330.87 4.49,-332.37 l 48.98,-594.26 213.42,63.98 -88.97,565.27 c -0.5,2 -0.5,4 -0.5,6 l -39.98,248.4 c -3.5,19.99 -5,38.99 -4.5,56.98 0.5,8.49 2.5,15.49 6,20.49 2.5,4 7.5,8 14.49,11.5 6,3.49 12.5,4.99 18.99,4.49 3.5,0 9,-1 16.5,-3 9.99,-1.99 27.49,-8.99 52.98,-20.99 l 13.49,-7.5 c 3,-1 6,-2.49 9,-4.99 l 108.46,-57.98 c 26.98,131.95 38.48,267.89 34.48,407.34 -39.98,43.48 -79.97,85.46 -120.45,125.95" /><path
         id="path384"
         style="fill:#8ebed3;fill-opacity:1;fill-rule:nonzero;stroke:none"
         d="m 4833.8,3138.89 -13.5,-198.42 -18.49,-424.33 582.27,-110.46 46.98,247.9 -308.88,84.47 c -13.49,3.5 -23.49,10.99 -29.98,22.99 -7,11.5 -8.5,24.49 -5,37.98 l 1,48.48 c 3.5,13.5 10.99,23.5 22.99,30.49 11.49,7 24.49,8.5 37.98,5 l 310.38,-81.97 34.48,182.43 -353.35,141.94 c -6.5,2.5 -13,12.5 -20.5,29.99 -7.49,17 -9.49,28.49 -6.99,34.99 l 2.49,46.48 c 5,12.49 14,21.99 26.5,27.49 6.49,2.5 15.99,4 27.48,4.5 11.5,0 20.5,-1.5 26.99,-4 l 326.37,-130.95 56.98,301.88 c -152.44,70.47 -305.38,135.44 -458.32,194.42 l -287.88,-491.3" /><path
         id="path386"
         style="fill:#8ebed3;fill-opacity:1;fill-rule:nonzero;stroke:none"
         d="m 1963.45,3664.18 c 0.5,15.99 1.5,31.98 3,47.98 -145.95,-56.98 -289.89,-121.95 -432.33,-194.92 l 17.49,-408.84 c 0.5,-13.49 -3.5,-25.49 -12.99,-35.99 -9.5,-9.99 -21.49,-15.49 -34.99,-15.99 l -49.98,-13.99 c -13.99,-0.5 -25.99,3.5 -35.49,12.99 -10.49,9.5 -15.99,20.99 -16.49,34.49 l -12.99,310.88 -287.39,-490.81 c 7,-129.95 19,-261.39 36.49,-393.84 8.49,-68.98 18.99,-138.44 30.49,-207.92 l 795.18,1355.96" /><path
         id="path388"
         style="fill:#fdf155;fill-opacity:1;fill-rule:nonzero;stroke:none"
         d="m 3186.96,1105.7 115.95,-385.345 84.97,128.45 195.42,-251.899 6.5,205.418 270.89,-153.437 -6.5,154.937 402.34,-167.933 -253.4,319.371 216.41,79.468 -220.41,140.95 168.93,132.44 -274.88,3 64.47,137.95 -438.83,-18.5 -331.86,-324.87" /><path
         id="path390"
         style="fill:none;stroke:#ff9900;stroke-width:29.98800087;stroke-linecap:round;stroke-linejoin:miter;stroke-miterlimit:10;stroke-dasharray:none;stroke-opacity:1"
         d="m 3186.96,1105.7 331.86,324.87 438.83,18.5 -64.47,-137.95 274.88,-3 -168.93,-132.44 220.41,-140.95 -216.41,-79.468 253.4,-319.371 -402.34,167.933 6.5,-154.937 -270.89,153.437 -6.5,-205.418 -195.42,251.899 -84.97,-128.45 -115.95,385.345 z" /><path
         id="path392"
         style="fill:#9ddff9;fill-opacity:1;fill-rule:nonzero;stroke:none"
         d="m 2705.65,1968.36 c -32.49,-72.47 -29.49,-142.95 9.49,-211.42 38.99,-68.47 102.47,-115.45 189.93,-140.44 88.47,-24.49 175.43,-20.49 260.89,12.99 85.47,33.49 144.45,85.97 177.43,157.94 32.99,72.47 29.99,142.94 -8.99,211.41 -38.99,68.48 -102.46,115.46 -190.43,140.45 -87.96,24.99 -174.43,20.99 -259.89,-12.5 -85.47,-33.48 -144.94,-85.96 -178.43,-158.43" /><path
         id="path394"
         style="fill:none;stroke:#000000;stroke-width:49.97999954;stroke-linecap:round;stroke-linejoin:round;stroke-miterlimit:10;stroke-dasharray:none;stroke-opacity:1"
         d="m 2715.14,1756.94 c 38.99,-68.47 102.47,-115.45 189.93,-140.44 88.47,-24.49 175.43,-20.49 260.89,12.99 85.47,33.49 144.45,85.97 177.43,157.94 32.99,72.47 29.99,142.94 -8.99,211.41 -38.99,68.48 -102.46,115.46 -190.43,140.45 -87.96,24.99 -174.43,20.99 -259.89,-12.5 -85.47,-33.48 -144.94,-85.96 -178.43,-158.43 -32.49,-72.47 -29.49,-142.95 9.49,-211.42 z" /><path
         id="path396"
         style="fill:#89a9b9;fill-opacity:1;fill-rule:nonzero;stroke:none"
         d="m 2812.11,1929.38 c -23.99,-53.49 -21.49,-105.47 7,-155.95 28.48,-50.47 75.46,-85.46 139.94,-103.95 65.47,-18 129.45,-14.5 192.42,9.99 62.98,24.49 106.46,62.98 130.95,116.46 24.49,53.48 22.49,105.45 -6.5,155.93 -28.49,50.48 -75.47,84.97 -140.44,103.46 -64.98,18.5 -128.95,15.5 -191.93,-8.99 -62.97,-24.49 -106.95,-63.48 -131.44,-116.95" /><path
         id="path398"
         style="fill:#9ddff9;fill-opacity:1;fill-rule:nonzero;stroke:none"
         d="m 3014.03,2036.83 c 6.49,-11.49 16.49,-18.99 30.98,-23.49 14.5,-4 28.99,-3 42.99,2.5 14.49,5.5 23.99,13.99 29.48,25.99 5.5,11.49 5,22.99 -1.5,34.48 -6.49,11.5 -16.99,19 -31.48,23.49 -14.5,4 -28.49,3.5 -42.48,-2 -14.5,-5.49 -24,-14.49 -29.49,-26.48 -5.5,-11.5 -5,-23 1.5,-34.49" /><path
         id="path400"
         style="fill:#f26d7d;fill-opacity:1;fill-rule:nonzero;stroke:none"
         d="m 3829.2,1715.96 c -155.44,42.48 -303.88,51.48 -445.32,26.99 104.46,-76.97 207.91,-165.93 310.37,-266.9 l 134.95,239.91" /><path
         id="path402"
         style="fill:#ffffff;fill-opacity:1;fill-rule:nonzero;stroke:none"
         d="m 3509.83,1167.18 c 93.46,75.97 154.94,178.93 184.42,308.87 -102.46,100.97 -205.91,189.93 -310.37,266.9 -331.87,244.4 -673.23,368.85 -1024.59,372.85 36.98,-369.35 285.38,-725.71 745.2,-1069.57 165.43,-4.5 300.38,35.48 405.34,120.95" /><path
         id="path404"
         style="fill:#c25e69;fill-opacity:1;fill-rule:nonzero;stroke:none"
         d="m 3678.26,1478.55 100.96,179.43 c -115.95,31.49 -226.91,37.98 -332.37,19.99 77.47,-57.47 154.94,-123.95 231.41,-199.42" /><path
         id="path406"
         style="fill:#000000;fill-opacity:1;fill-rule:nonzero;stroke:none"
         d="m 2330.8,2141.79 4,-28.49 c 36.48,-375.35 287.88,-737.71 754.7,-1087.07 l 6.49,-4.99 8,0 c 171.93,-5 312.37,36.98 421.83,126.45 96.46,78.47 160.44,184.92 191.92,318.87 l 149.44,265.39 -31.48,8 c -155.44,42.48 -303.88,51.98 -445.82,29.49 -333.87,243.9 -677.24,367.85 -1030.09,371.35 l -28.99,1 z m 1102.56,-417.33 c 114.45,13.99 233.91,5.99 358.35,-24.5 l -108.45,-192.42 c -82.97,80.47 -166.44,152.44 -249.9,216.92 z m -63.98,-2 8.5,-6 c 0,0 36.99,-28.49 111.46,-84.97 81.46,-64.47 141.94,-114.95 180.42,-152.44 -28.49,-122.95 -86.96,-220.41 -175.43,-292.38 -99.45,-79.97 -226.4,-118.45 -381.35,-115.95 -436.82,328.37 -678.72,668.23 -725.2,1019.59 335.86,-10.5 663.23,-133.45 981.6,-367.85" /><path
         id="path408"
         style="fill:#cbc4c4;fill-opacity:1;fill-rule:nonzero;stroke:none"
         d="m 3434.36,1181.67 c 73.47,59.48 121.45,140.45 144.94,242.9 -80.47,79.47 -161.94,149.45 -243.9,209.92 -261.4,192.42 -529.79,289.89 -806.18,292.89 29.49,-290.39 224.91,-570.78 586.26,-841.17 129.95,-3.5 236.41,27.99 318.88,95.46" /><path
         id="path410"
         style="fill:#f26d7d;fill-opacity:1;fill-rule:nonzero;stroke:none"
         d="m 3499.33,1226.16 c 154.44,1.49 266.4,21.48 334.87,59.97 -144.45,144.44 -354.36,242.41 -629.75,294.88 24.99,-78.47 123.45,-196.42 294.88,-354.85" /><path
         id="path412"
         style="fill:#c25e69;fill-opacity:1;fill-rule:nonzero;stroke:none"
         d="m 3473.34,1228.65 c 130.45,0 225.91,15 285.89,44.99 -113.46,114.95 -285.39,194.42 -514.8,237.9 17,-62.47 93.46,-156.44 228.91,-282.89" /><path
         id="path414"
         style="fill:#000000;fill-opacity:1;fill-rule:nonzero;stroke:none"
         d="m 3169.46,1613 19,-41.98 c 38.48,-86.47 133.94,-200.92 285.88,-342.37 l 25.49,-27.49 c 159.94,1.5 275.39,22.5 346.86,62.98 l 29.99,15.99 -24.49,23.5 c -147.44,147.93 -361.35,248.39 -642.74,301.87 l -39.99,7.5 z m 329.87,-361.86 -4.5,0 c -135.94,126.45 -222.91,225.91 -260.39,298.38 236.9,-49.47 422.33,-134.94 556.27,-256.39 -66.97,-26.49 -163.93,-40.49 -291.38,-41.99" /><path
         id="path416"
         style="fill:#f26d7d;fill-opacity:1;fill-rule:nonzero;stroke:none"
         d="m 2909.07,1011.24 c 56.48,43.48 108.45,116.46 155.43,219.91 l -295.37,244.9 c -20,-160.93 26.48,-315.87 139.94,-464.81" /><path
         id="path418"
         style="fill:#c25e69;fill-opacity:1;fill-rule:nonzero;stroke:none"
         d="m 3070,1244.15 -240.9,186.92 c -12.49,-137.44 27.99,-265.39 121.95,-383.84 43.99,40.48 83.47,105.95 118.95,196.92" /><path
         id="path420"
         style="fill:#000000;fill-opacity:1;fill-rule:nonzero;stroke:none"
         d="m 2751.13,1510.54 -6,-29.99 c -21.49,-168.43 26.49,-329.87 143.94,-484.804 l 15.5,-20.492 19.99,15.996 c 59.48,45.48 114.96,124.45 166.44,236.9 l -339.87,282.39 z m 287.39,-276.89 c -38.49,-82.47 -80.47,-144.44 -124.95,-185.92 -89.97,125.95 -130.95,256.4 -122.96,390.84 l 247.91,-204.92" /><path
         id="path422"
         style="fill:#c6996d;fill-opacity:1;fill-rule:nonzero;stroke:none"
         d="m 4825.8,1531.53 c -41.98,-13.99 -78.47,-41.48 -109.46,-82.96 -30.98,-41.49 -46.98,-83.97 -48.48,-127.95 -1.5,-43.99 12,-76.47 40.49,-97.96 28.49,-21.5 63.47,-25.49 104.95,-11.5 41.99,14 78.47,41.48 109.46,82.97 30.99,41.48 46.98,83.96 48.48,127.94 1.5,43.99 -11.49,76.98 -39.98,98.47 -28.49,21.49 -63.97,24.99 -105.46,10.99" /><path
         id="path424"
         style="fill:#8f6c5e;fill-opacity:1;fill-rule:nonzero;stroke:none"
         d="m 4911.77,1477.05 c -21,15.5 -46.98,18.5 -77.47,8 -30.99,-10.5 -57.98,-30.49 -80.97,-60.98 -22.49,-30.48 -34.49,-61.97 -35.49,-94.46 -1.5,-32.48 8.5,-56.47 29.99,-71.97 20.49,-15.99 46.48,-18.99 76.97,-8.5 30.99,10.5 57.98,30.49 80.97,60.98 22.49,30.49 34.48,61.98 35.48,94.46 1.5,32.49 -8.49,56.48 -29.48,72.47" /><path
         id="path426"
         style="fill:#c6996d;fill-opacity:1;fill-rule:nonzero;stroke:none"
         d="m 2140.88,1024.73 c 56.47,4.5 114.95,-8.99 176.42,-40.48 61.48,-31.488 106.96,-71.469 136.45,-119.949 29.49,-48.481 34.48,-91.465 14.99,-128.949 -18.99,-37.485 -56.97,-58.477 -113.45,-62.977 -56.48,-3.996 -115.45,9.496 -176.93,40.984 -61.47,31.489 -106.46,70.973 -135.95,119.454 -29.48,48.48 -34.98,91.46 -15.99,128.949 19.49,37.484 57.48,58.478 114.46,62.968" /><path
         id="path428"
         style="fill:#8f6c5e;fill-opacity:1;fill-rule:nonzero;stroke:none"
         d="m 2158.87,984.75 c -45.48,-3.496 -76.47,-19.992 -91.96,-49.98 -15.5,-30.489 -11,-64.973 12.99,-103.957 23.49,-38.985 59.98,-70.973 108.96,-95.961 49.48,-25.493 96.46,-35.985 141.94,-32.489 45.48,3.5 75.97,20.492 91.46,50.481 15.5,30.488 11,64.472 -12.49,102.957 -23.49,39.484 -59.98,71.472 -109.46,96.465 -49.48,25.488 -96.46,35.984 -141.44,32.484" /><path
         id="path430"
         style="fill:#fdf155;fill-opacity:1;fill-rule:nonzero;stroke:none"
         d="m 4581.4,446.965 -73.47,118.453 -127.45,-22.988 73.47,-118.453 127.45,22.988" /><path
         id="path432"
         style="fill:none;stroke:#ff9900;stroke-width:29.98800087;stroke-linecap:square;stroke-linejoin:miter;stroke-miterlimit:10;stroke-dasharray:none;stroke-opacity:1"
         d="m 4507.93,565.418 -127.45,-22.988 73.47,-118.453 127.45,22.988 -73.47,118.453 z" /><path
         id="path434"
         style="fill:#fdf155;fill-opacity:1;fill-rule:nonzero;stroke:none"
         d="m 4853.79,345.008 64.48,56.976 -44.99,75.469 -64.47,-56.976 44.98,-75.469" /><path
         id="path436"
         style="fill:none;stroke:#ff9900;stroke-width:29.98800087;stroke-linecap:square;stroke-linejoin:miter;stroke-miterlimit:10;stroke-dasharray:none;stroke-opacity:1"
         d="m 4918.27,401.984 -44.99,75.469 -64.47,-56.976 44.98,-75.469 64.48,56.976 z" /><path
         id="path438"
         style="fill:#fdf155;fill-opacity:1;fill-rule:nonzero;stroke:none"
         d="m 5190.16,392.988 52.97,24.989 -40.98,31.488 -52.98,-24.988 40.99,-31.489" /><path
         id="path440"
         style="fill:none;stroke:#ff9900;stroke-width:29.98800087;stroke-linecap:square;stroke-linejoin:miter;stroke-miterlimit:10;stroke-dasharray:none;stroke-opacity:1"
         d="m 5243.13,417.977 -40.98,31.488 -52.98,-24.988 40.99,-31.489 52.97,24.989 z" /><path
         id="path442"
         style="fill:#c6996d;fill-opacity:1;fill-rule:nonzero;stroke:none"
         d="m 4526.92,1263.14 c -31.49,-4 -61.97,-18.99 -90.46,-44.48 -28.99,-25.49 -47.48,-53.98 -55.98,-85.47 -8.5,-31.49 -4,-56.48 12.99,-75.47 17,-19.49 41.49,-26.49 73.98,-21.99 31.48,4.5 61.97,19.49 90.96,44.98 28.48,25.49 46.98,53.98 55.48,84.97 8.49,31.49 3.99,56.48 -13,75.97 -16.99,18.99 -41.48,25.99 -73.97,21.49" /><path
         id="path444"
         style="fill:#8f6c5e;fill-opacity:1;fill-rule:nonzero;stroke:none"
         d="m 4586.9,1224.16 c -14.5,15.99 -34.49,21.98 -60.98,18.49 -26.49,-4 -51.98,-16.49 -75.97,-37.49 -23.49,-21.49 -38.98,-44.98 -45.98,-70.47 -7,-26.49 -3.5,-47.48 10.99,-63.48 14,-15.49 34.49,-21.48 60.98,-17.49 26.49,3.5 51.48,15.5 75.47,36.99 23.99,20.99 39.48,44.48 45.98,70.97 7,25.49 3.5,46.48 -10.49,62.48" /></g></g></svg>